/* XPM */
static char *_36784a03b0c4e5ece3b695e96b595390iGkVyPVtYN1tpoY[] = {
/* columns rows colors chars-per-pixel */
"64 64 204 2 ",
"   c #010101",
".  c #0B0B0B",
"X  c #070708",
"o  c #1A0C00",
"O  c #130B0B",
"+  c #0C1109",
"@  c #0B1105",
"#  c #1D1401",
"$  c #13160E",
"%  c #12180E",
"&  c #0C0F13",
"*  c #0E1215",
"=  c #141314",
"-  c #1C1314",
";  c #1B1C13",
":  c #14121A",
">  c #1D1C1D",
",  c #151818",
"<  c #241604",
"1  c #241B00",
"2  c #2A1C02",
"3  c #251C0B",
"4  c #311D00",
"5  c #201419",
"6  c #231D19",
"7  c #271A18",
"8  c #311F1C",
"9  c #1F2400",
"0  c #1F2115",
"q  c #222301",
"w  c #2B2301",
"e  c #2C2B01",
"r  c #2D240A",
"t  c #28290A",
"y  c #322200",
"u  c #312B01",
"i  c #312D0A",
"p  c #3B2405",
"a  c #2B3302",
"s  c #283B00",
"d  c #343500",
"f  c #3A3200",
"g  c #353A01",
"h  c #353707",
"j  c #222412",
"k  c #2C251C",
"l  c #292517",
"z  c #352A16",
"x  c #253418",
"c  c #31321D",
"v  c #38331A",
"b  c #1E1C24",
"n  c #271B25",
"m  c #1D2124",
"M  c #222222",
"N  c #252329",
"B  c #2B292A",
"V  c #312E25",
"C  c #363636",
"Z  c #343739",
"A  c gray23",
"S  c #482F00",
"D  c #433200",
"F  c #4D3101",
"G  c #453D00",
"H  c #453913",
"J  c #543900",
"K  c #3A4000",
"L  c #474A00",
"P  c #534506",
"I  c #555A00",
"U  c #685E05",
"Y  c #7A5D06",
"T  c #606000",
"R  c #7F6100",
"E  c #7D631B",
"W  c #77611A",
"Q  c #644A25",
"!  c #626F2A",
"~  c #7A672F",
"^  c #796423",
"/  c #7A6635",
"(  c #3D4045",
")  c #444444",
"_  c #4B4B4B",
"`  c #484745",
"'  c #4F534B",
"]  c #4F5445",
"[  c #54554C",
"{  c #565B4C",
"}  c #555648",
"|  c #584E5A",
" . c #584E57",
".. c #545454",
"X. c #5B5654",
"o. c #545A52",
"O. c #5C5A56",
"+. c #56545B",
"@. c #5B555B",
"#. c #5D5D5D",
"$. c #605D58",
"%. c #5C6052",
"&. c #6D634A",
"*. c #636363",
"=. c #6E6E6E",
"-. c #746E6D",
";. c #6E726D",
":. c #6E7566",
">. c #727365",
",. c #72726D",
"<. c #6F6F71",
"1. c #736F73",
"2. c #786D74",
"3. c #756D7B",
"4. c #786D79",
"5. c #6E7272",
"6. c #6F7279",
"7. c #727272",
"8. c #707079",
"9. c #7A7A7A",
"0. c #76797E",
"q. c #81620F",
"w. c #826716",
"e. c #8B781C",
"r. c #A27F0A",
"t. c #896B2E",
"y. c #9A8A11",
"u. c #BB9B2C",
"i. c #BA973B",
"p. c #A2A03C",
"a. c #F1BF10",
"s. c #E6BA1D",
"d. c #C5A831",
"f. c #DFB93A",
"g. c #EBBE25",
"h. c #EDBE2D",
"j. c #EDBE33",
"k. c #E6BE3E",
"l. c #D9CF0E",
"z. c #DBD014",
"x. c #ECC20E",
"c. c #F1C00C",
"v. c #ECC31D",
"b. c #EEC312",
"n. c #FEFC04",
"m. c #FDFC0C",
"M. c #FFF712",
"N. c #FFFB16",
"B. c #F5FA1D",
"V. c #ECC320",
"C. c #EEC02C",
"Z. c #F7C22A",
"A. c #E7C532",
"S. c #F1C838",
"D. c #FFFD20",
"F. c #FCF32C",
"G. c #FFF92C",
"H. c #F8FB28",
"J. c #FFEC39",
"K. c #FBE832",
"L. c #FFF434",
"P. c #FBFB34",
"I. c #F8F537",
"U. c #A29F42",
"Y. c #BC9F59",
"T. c #BCA154",
"R. c #B5A26A",
"E. c #DCB945",
"W. c #C6A347",
"Q. c #E6BE4A",
"!. c #E9BA44",
"~. c #DCC457",
"^. c #ECC244",
"/. c #ECEB4C",
"(. c #E5E64A",
"). c #FCEF4B",
"_. c #FAF54A",
"`. c #EAEE57",
"'. c #EEF25B",
"]. c #F5F350",
"[. c #F8E567",
"{. c #EDF56C",
"}. c #FFF269",
"|. c #E1EF7E",
" X c #E1F079",
".X c #7E7A81",
"XX c #858585",
"oX c #8B8B8B",
"OX c #8D8D85",
"+X c #8E938C",
"@X c #919587",
"#X c #93968C",
"$X c #8E8E93",
"%X c #918F96",
"&X c #988D9C",
"*X c #8D9594",
"=X c #8F9A96",
"-X c #939494",
";X c #929499",
":X c #979A99",
">X c #9D9D9D",
",X c #9A9494",
"<X c #A2A2A2",
"1X c #ABABAB",
/* pixels */
"s  XH.n.m.z.G u c i U./.D.m.B.I f z c a {.I.M.N.J.f g x x ! `.P.P.'.! x x a G K.M.N.I.{.a c z f I B.N.B./.p.z V u L l.m.n.H.|.s ",
"a K ].G.F.I.[.D w i d T _.P.G.).e.D t g g /.F.F.J.}.f e z h L '.'.L d i e f }.).F.P.(.g g e f e.).L.H._.T d i t S [.L.N.H.].g a ",
"3 2 2 d.V.b.g.^.p w q 9 w ~.v.c.h.u.4 q 9 w y.A.v.C.f.F 4 2 1 w e 1 r 4 J !.s.v.A.y.e q 1 y u.h.a.V.~.w 9 q w p Q.h.x.v.d.4 2 6 ",
"n 8 z F r.A.h.^.T.H ; N k F !.Z.C.E.R.r j 9 G Y k.j.^.W.Q k N b n n 7 Q i.!.j.S.R D 9 l t R.E.h.h.!.F k N ; H Y.Q.j.S.r.F p 8 n ",
"7 5 - < P Y w.E / 1 0 = 5 < t.Y q.^ &.; % 0 # D E w.W ~ z 5 : b : : 6 v ~ E E E D # j % ; &.^ q.q.t.< > = 0 1 / E w.U P 2 - 5 n ",
"O n N M j t q w w l 6 N N 6 2 y y y > N M ; k 3 2 y 2 r k M m m & b : O # o o < # k ; M N 6 2 4 4 4 6 N M 6 r r w w u q M B n   ",
"Z ....[ [ { } { } X.| | #.O.X.} [ $.....[ %.[ O.X.X.[ } ....o.o.=         X   = ` O.o.' ..+.O.} } { O.O.| | X.' { ] O.[ [ .. .: ",
"( &XoX,X*XoX=X*X;X$X&X,X,XOX+X*X%X;X*X*X@X@X*X;X;X$X,X-X$X$X-X' %             : 0.:X@X@X-X-X%X-X-X+XOX,X,X&X%X;X*X*X*X+X,X-X-X* ",
"Z 7.>.>.,.,.8.6.6.3.1.1.>.-.7.7.1.-.-.>.>.>.,.5.6.1.7.-.4.7.=.[ %     X     X = 9.+X>.>.>.-.2.1.7.7.>.-.,.4.8.8.6.5.7.,.>.-.7.= ",
"Z 5.,.>.-.,.8.1.6.6.8.-.>.-.7.4.7.,.-.-.>.>.>.5.5.1.4.1.7.1.=...$             : 9.+X>.>.>.-.-.2.4.-.,.,.7.7.8.8.8.8.,.,.>.>.7.& ",
"C :.>.,.,.,.8.7.8.6.1.7.7.,.,.;.8.8.1.7.2.-.,.7.5.5.7.;.7.7.8.+.:   X         * 9.%X,.2.1.8.8.7.,.:.,.5.1.8.8.5.7.7.;.7.;.,.;.+ ",
"C ;.,.,.7.7.7.7.6.7.7.5.,.,.,.8.8.8.1.4.2.7.7.7.5.;.7.7.7.8.3.+.b             = 9.-X7.7.1.8.1.8.5.7.,.8.1.5.,.;.7.7.8.7.7.,.>.+ ",
"Z 5.,.-.2.2.7.1.5.:.:.>.,.1.3.3.1.,.-.,.5.7.8.7.;.-.,.-.7.7.1.+.:       X     - 9.-X7.7.,.7.-.-.3.4.1.,.,.,.:.:.,.1.2.4.1.7.;.+ ",
"Z ;.7.1.2.4.7.7.,.>.:.:.;.,.3.3.2.-.,.,.;.5.7.1.1.-.1.-.7.7.1.+.: X           = 9.$X5.5.,.,.-.2.3.3.8.,.;.:.>.>.-.1.2.3.4.7.;.. ",
"C 5.7.,.,.,.7.7.7.,.:.;.;.5.1.4.7.-.;.;.5.6.1.1.4.1.7.,.7.,.1.+.:             - .X%X6.5.:.,.,.7.-.,.7.6.;.;.:.,.,.-.7.7.5.8.;.@ ",
"C ,.8.5.;.;.7.7.7.7.;.;.5.5.,.;.,.5.5.;.5.5.6.1.1.<.,.;.;.;.;...:             : .X%X6.5.5.;.7.7.,.;.6.5.5.5.,.,.,.,.,.5.5.6.-.. ",
"C 1.7.;.7.;.7.7.<.7.;.,.7.7.-.5.7.7.=.7.7.=.7.8.7.1.7.;.7.;.5...=             = 9.-X8.7.7.;.7.7.=.,.8.7.5.=.,.=.7.7.=.7.5.8.,.. ",
"C =.7.7.7.7.1.7.7.7.1.5.7.5.5.7.=.7.7.7.7.5.7.,.7.=.7.=.7.7.-...=             = 9.$X;.<.7.7.=.7.7.7.7.7.7.7.7.7.7.7.=.7.<.7.7.. ",
"C 7.7.<.7.7.5.,.7.7.7.7.,.7.5.7.=.7.7.7.;.7.7.7.7.7.7.=.7.7.7...=             = 9.-X7.,.7.7.=.7.;.1.,.7.1.;.7.7.7.7.=.7.<.7.7.. ",
"C 7.7.,.7.;.1.7.,.=.7.7.7.7.1.,.7.=.7.7.7.7.7.7.7.7.7.=.7.7.5...=             = 9.-X7.7.7.7.;.7.7.7.7.5.7.7.7.;.7.7.,.7.7.,.7.X ",
"C =.7.7.7.7.7.7.=.7.7.7.7.;.7.7.7.=.9.<.1.;.1.;.,.<.7.7.7.7.1...=             = 9.-X,.=.5.9.7.7.1.;.7.7.5.-.1.=.1.7.,.7.7.7.7.X ",
"C 7.7.=.7.7.1.7.=.7.7.7.<.1.,.7.-.XX-X7.=.7.7.1.7.7.7.=.7.7.;...=             = 9.$X=.,.7.-X.X7.7.=.=.5.7.7.5.-.;.7.5.7.,.<.7.X ",
"C 7.7.5.7.7.;.7.7.7.7.7.1.;.7.7..X:X<X7.7.7.7.7.7.=.7.<.8.,.<...=             = 9.-X7.7.7.<X-XXX7.7.7.-.7.7.7.5.1.7.7.7.7.7.=.. ",
"C 7.7.-.7.7.<.7.;.1.7.7.=.7.7.9.:X<X<X;.7.7.=.7.7.7.7.,.7.7.=...=             = 9.oX7.7.;.<X<X;X9.7.7.7.5.1.,.7.;.7.=.7.7.7.=.X ",
"C <.7.7.7.7.7.1.=.7.7.;.1.=.9.-X<X<X>X7.7.7.=.7.7.7.7.=.=.7.7...= X           , .X*X*.=.5.<X>X<X-X9.,.7.1.;.7.;.7.7.-.7.=.7.7.X ",
"C ,.7.<.7.5.7.7.7.=.7.7.=.9.:X1X<X<X<X,.7.7.;.7.7.1.7.7.7.5.7.X.=             . .X$X.X6.5.:X<X<X1X:X9.=.7.1.=.7.7.7.7.7.5.7.7.X ",
"C ,.7.7.7.,.7.;.=.9.7.=.7.;.9.-X>X<X<X5.7.7.7.7.7.7.7.7.7.=.=...=   X       X , .X.X7.7.5.<X<X>X:X9.,.7.=.;.9.=.7.7.;.7.,.7.7.X ",
"C 7.7.=.7.1.7.1.=.7.7.7.7.=.,.8.-X>X<X7.7.7.7.;.8.,.7.7.7.7.7...= X           = R.oX7.7.5.<X<X$X7.-.=.7.7.8.1.=.7.1.<.7.7.7.7.  ",
"C 7.7.;.7.7.5.7.7.=.7.7.7.7.,.7..XoX>X7.7.7.7.7.7.,.7.7.7.7.-...=       X     , 9.-X=.7.1.<XoX9.8.,.1.5.7.;.=.7.7.7.,.7.5.7.5.X ",
"C <.7.5.7.1.,.1.,.9.=.=.7.7.=.7.,.9.oX7.7.7.7.,.7.7.7.;.=.7.7...,   X         $ 9.-X7.7.=.*X7.7.7.=.7.7.=.=.9.=.;.7.7.7.-.7.7.  ",
"C <.7.-.7.7.7.5.7.=.7.7.7.7.9.7.;.7.9.7.-.7.7.8.7.5.7.=.7.7.7...=   X     X   > 9.OX7.7.=.9.7.,.,.9.7.7.7.7.=.7.1.;.,.8.7.7.7.  ",
"C 7.7.7.7.7.7.,.<.7.7.=.7.7.=.7.7.7.=.7.=.7.7.7.7.,.7.1.7.=._ ,             > :X.X7.=.7.7.=.7.7.7.=.7.7.1.7.7.<.;.1.,.8.,.7.7.  ",
"C 1.7.,.7.7.,.5.7.7.7.,.;.1.;.1.7.7.=.7.,.8.,.7.7.=.7.7.#.) =     X       = 1X7.7.=.7.=.7.=.7.7.7.,.7.7.1.,.5.5.7.-.,.<.7.7.7.  ",
"C 5.7.<.7.<.7.1.1.7.<.7.7.7.7.7.,.7.7.7.=.<.7.7.7.7.7...B =           & > >X=.7.7.=.7.7.7.7.<.7.7.7.<.7.5.,.7.-.1.5.7.7.7.<.7.  ",
"C ,.7.5.7.7.7.7.;.7.<.7.7.7.;.7.7.7.=.7.7.7.9.=.7.7.O.B + X         . B .XR.7.7.7.7.<.7.7.=.,.7.7.7.7.7.5.1.5.7.;.1.;.7.7.7.7.  ",
"C <.7.-.7.7.,.5.<.7.7.7.;.1.1.7.7.7.=.7.7.=.7.7.7.=.( =     X     X C O..X9.*.7.7.7.7.=.7.7.7.7.7.7.<.,.7.,.1.7.7.<.7.=.7.=.7.  ",
"C =.7.7.7.7.5.1.7.7.<.7.,.5.7.5.7.7.7.9.=.7.7.7.,._ ,             > 7.-X6.*..X5.7.;.7.=.7.-.9.7.<.7.7.,.7.1.1.;.5.-.7.=.7.<.7.  ",
"C 7.7.7.7.7.7.,.7.,.7.7.7.7.1.,.7.7.=.7.7.9.=.*._ >       X     = -XoX7.*..X5.6.7.=.7.7.8.=.=.7.,.7.<.7.,.5.7.7.7.5.7.1.7.,.7.  ",
"C 7.7.;.7.,.5.,.7.-.1.;.7.7.7.7.5.,.9.*.7.7.#._ =             = <X7.7.<.5.0.*.5.7.=.9.7.=.9.=.7.1.7.<.7.7.7.7.7.7.=.1.;.7.7.7.  ",
"C =.7.1.7.1.7.1.5.5.7.7.7.7.7.7.,..X>X7.7.=.#.) =             = <X9.=.7.7.<.5.5.7.7.=.,.7.>X9.7.5.,.7.7.<.7.,.<.7.,.7.;.7.=.7.  ",
"C 7.7.5.7.7.7.7.7.=.<.7.7.7.7.7.XX:X<X7.=.7.#.) =             = <X7.7.7.7.<.7.5.1.7.7.;.7.<X:XXX7.7.7.7.8.,.=.7.1.;.7.<.7.<.7.  ",
"C ;.7.-.7.7.5.-.=.9.=.-.7.5.7.9.-X<X<X7.7.7.O.) =             = <X7.7.7.7.,.7.,.=.=.=.7.7.<X>X-X9.7.=.7.,.=.9.=.7.<.7.5.7.,.=.  ",
"C 5.7.5.7.,.7.7.7.,.7.7.7.7.7.<X<X<X<X7.7.7.#.` =             = <X7.7.,.1.=.7.7.7.7.1.7.7.>X<X<X<X9.7.7.7.7.=.7.7.<.7.-.7.7.7.  ",
"C 1.7.-.7.7.7.<.7.7.7.7.=.7.<X>X<X<X>X7.5.8.#.` =             = <X7.7.5.5.;.1.;.7.7.7.7.7.>X<X<X<X>X7.=.7.7.7.7.1.;.7.7.7.7.=.  ",
"C 1.7.1.7.7.7.5.7.7.7.=.9.=.=.>X<X<X<X7.=.1.#.) =             = <X9.,.1.5.-.7.1.;.7.-.5.<.<X<X<X>X=.7.9.=.7.7.7.7.-.7.7.7.<.5.  ",
"C ;.7.;.7.7.,.1.<.7.7.7.=.=.9.7.-X<X<X7.,.7.#.) =             = <X7.7.5.1.;.7.7.7.7.7.7.7.<X>X-X7.9.=.=.7.7.7.7.5.5.7.=.7.,.-.  ",
"C ;.7.1.7.1.5.1.7.=.7.7.7.7.=.7.9.oX:X7.7.6.%._ =             = <X9.7.=.5.7.7.<.7.7.7.7.7.:XoX9.7.=.;.7.7.7.=.7.7.-.7.7.7.5.5.  ",
"C 1.7.;.7.5.7.,.,.9.7.=.7.7.7.7.=.9.oX7.7.<.@.` =             = <X7.,.1.7.=.7.,.7.7.=.7.7.oX9.-.7.7.7.7.=.7.7.;.1.5.7.-.7.7.=.  ",
"C 7.;.8.<.7.7.=.7.7.5.,.7.7.7.7.7.7.7.8.=.,.#.) :             = <X7.-.5.7.7.7.7.7.7.1.,.7.5.5.7.7.7.7.7.7.<.7.1.7.5.7.=.=.7.7.  ",
"C 7.,.7.7.7.7.7.7.7.1.,.<.7.7.<.;.7.1.,.7.7.%.) =             = <X7.7.7.,.7.7.7.1.,.5.7.1.,.1.7.7.7.7.7.7.7.7.,.7.=.7.7.7.7.;.  ",
"C 7.=.7.7.,.7.7.7.7.7.7.7.7.,.7.7.7.7.=.7.7.*.) =             = <X7.7.7.7.5.7.7.;.7.7.7.,.5.7.7.7.7.-.5.7.,.1.7.,.7.7.7.7.1.=.  ",
"C 7.=.7.7.<.=.,.7.7.7.7.7.7.7.7.7.7.7.=.7.7.#.) =             = <X9.7.,.7.1.,.8.7.7.7.7.7.7.7.7.7.7.7.7.7.7.5.7.7.7.<.=.7.=.=.  ",
"C 7.=.8.7.7.=.7.7.7.7.<.7.7.7.7.<.7.7.7.<.7.#.) =             = <X7.7.7.7.7.=.7.7.7.7.7.7.7.,.7.7.7.7.7.7.,.7.7.=.8.=.=.7.7.7.  ",
"A oXXXXXXXXXXXoXXXXXXXXXXXXXXXXXXXXXoXXX7.8.*.) =             = <X7.7.7.XXoXXXXXXXXXXXXXXXXXXXXXXXXXXXXXXXXXXXXXXXOXXXXXoXXXXX  ",
"[ <X<X<X<X<X<X<X<X<X<X<X<X<X<X<X<X<X<X<X8.7.#.) =             = <X9.7.XX<X<X<X<X<X<X<X<X<X<X<X<X<X<X<X<X<X<X<X<X<X<X<X<X<X<X:XX ",
"_ <X<X>X<X<X<X<X<X<X<X<X<X<X<X<X<X<X<X<X,.,.#.` =             = >X7.=.XX<X<X>X<X<X<X<X<X<X<X<X<X<X<X<X<X<X<X<X<X<X<X<X<X<X<X>X  ",
"A 7.7.7.,.8.1.,.=.7.7.=.=.7.=.7.6.6.<.7.7.5.%._ =             = 1X=.7.7.,.7.7.7.7.=.=.9.1.=.7.1.7.<.7.=.=.7.-.7.=.7.,.7.=.9.*.X ",
"C 7.>X<XoX=.;.<X<X9.=.XX<X<X7.=.;X<X;X8.=.9.*.A =             = >X7.7.=.9.>X<X7.5.oX<X:X7.7.-X<X>X7.,.:X1XXX5.5.<X<X9.7.9.:X1X  ",
"C :X<XXX7.9.:X<X9.7.XX<X>X9.7.:X;X;XXX,.=.,.#.) =             = <X7.;.=.=.9.<X:X9.-.9.<X:X9.9.oX<X-X7.XX>X:X-X=.9.<X:XoX7.9.<X  ",
"C -XoX7.7.7.-XoX7.=.9.oXoX7.<.OX.XR.5.=.8.7.#._ =             = <X9.8.9.,.7.oXoX9.;.9.-XXX7.,.9.oX-X7.,..XoX-X7.7.oXoX9.=.-.XX  ",
"C =.-.7.6.=.=.7.<.,.7.7.1.7.=.=.7.9.7.=.<.7.#.) =             = >X=.7.7.1.7.7.;.7.8.,.7.7.7.7.;.-.7.=.7.9.=.=.=.-.=.9.7.7.7.5.  ",
"C 7.7.7.<.9.7.=.5.7.5.=.=.7.7.7.=.7.,.8.7.7.#.) =             = 1X7.7.7.=.=.=.9.=.5.=.7.7.=.7.7.5.7.7.7.,.7.7.7.5.=.7.;.=.=.7.  ",
"C 7.7.9.<.*.7.6.7.7.7.7.5.<.7.=.7.7.7.=.8.7.$.) =             = >X7.5.<.1.9.7.=.7.9.=.=.7.7.8.=.5.=.-.<.7.7.5.<.8.,.=.5.9.8.*.X ",
"= > M > l N M 0 b 6 > N 6 M N 0 b 0 b M m l , = =             = ` N > b l , M > 6 M > M M > b l M M > M M > b l > N M > > l N = "
};
