/* XPM */
static char *_0a987b696ad489e8019842c69d59f03htbQSgXeR66eXBaZ[] = {
/* columns rows colors chars-per-pixel */
"64 64 209 2 ",
"   c None",
".  c #030303",
"X  c #090706",
"o  c #090807",
"O  c #090709",
"+  c #0C0B0A",
"@  c #070808",
"#  c #120E0B",
"$  c #13120E",
"%  c #1E120D",
"&  c #151412",
"*  c #1A1613",
"=  c #1C1A14",
"-  c #1C1C1B",
";  c #241B14",
":  c #301F18",
">  c #1F201F",
",  c #24211B",
"<  c #2A261C",
"1  c #2C291E",
"2  c #37271B",
"3  c #35301F",
"4  c #1E2020",
"5  c #242423",
"6  c #2D2B23",
"7  c #2C2C2B",
"8  c #262A2A",
"9  c #312E22",
"0  c #382F27",
"q  c #2F302E",
"w  c #373425",
"e  c #393525",
"r  c #3B3826",
"t  c #35312D",
"y  c #3D3929",
"u  c #3A352A",
"i  c #292F30",
"p  c #2B3132",
"a  c #323333",
"s  c #353B3C",
"d  c #3D3E3C",
"f  c #393734",
"g  c #482D16",
"h  c #4A3017",
"j  c #583416",
"k  c #633B17",
"l  c #663D18",
"z  c #423D2B",
"x  c #423724",
"c  c #563727",
"v  c #443D36",
"b  c #533628",
"n  c #3F403D",
"m  c #6C411B",
"M  c #71431A",
"N  c #46412E",
"B  c #48432E",
"V  c #4E482E",
"C  c #4D4934",
"Z  c #464339",
"A  c #524D34",
"S  c #554835",
"D  c #56513B",
"F  c #5B553B",
"G  c #67593C",
"H  c #765035",
"J  c #6B633F",
"K  c #3A3F40",
"L  c #3E4343",
"P  c #414645",
"I  c #454A4A",
"U  c #4A4D4C",
"Y  c #494945",
"T  c #554E46",
"R  c #4D504E",
"E  c #59544B",
"W  c #4D5251",
"Q  c #525553",
"!  c #5A5D5A",
"~  c #5B5854",
"^  c #625A49",
"/  c #5D605D",
"(  c #6C6442",
")  c #6A6447",
"_  c #756D4B",
"`  c #736745",
"'  c #7A714E",
"]  c #67635B",
"[  c #746A5A",
"{  c #7C7350",
"}  c #5E6260",
"|  c #6B6E6C",
" . c #656966",
".. c #6E716C",
"X. c #75736B",
"o. c #6F7371",
"O. c #727573",
"+. c #767976",
"@. c #7A7E7B",
"#. c #787B78",
"$. c #766F64",
"%. c #8C5A2B",
"&. c #925C2E",
"*. c #975C30",
"=. c #995E32",
"-. c #87593C",
";. c #9C6235",
":. c #9C6539",
">. c #A3653B",
",. c #A46A3D",
"<. c #A5663B",
"1. c #976647",
"2. c #95714F",
"3. c #AD6D44",
"4. c #A66E43",
"5. c #B06F47",
"6. c #B26F49",
"7. c #A67343",
"8. c #AA7346",
"9. c #AC7648",
"0. c #AD7A4B",
"q. c #A3754E",
"w. c #B17349",
"e. c #B07D4E",
"r. c #B8774F",
"t. c #B37D51",
"y. c #BA7A51",
"u. c #B07F5A",
"i. c #AC7954",
"p. c #8A7D6B",
"a. c #867A69",
"s. c #867C70",
"d. c #C17F56",
"f. c #7D807C",
"g. c #B58253",
"h. c #B98456",
"j. c #B98559",
"k. c #B8865C",
"l. c #AB815B",
"z. c #8B8378",
"x. c #968A79",
"c. c #9D907D",
"v. c #8E836E",
"b. c #B68C6A",
"n. c #B78862",
"m. c #BF9064",
"M. c #C4875D",
"N. c #CA8C62",
"B. c #C58C61",
"V. c #C89265",
"C. c #7F8380",
"Z. c #828581",
"A. c #8A8D89",
"S. c #878985",
"D. c #8E928E",
"F. c #90938E",
"G. c #9C9183",
"H. c #929593",
"J. c #9C9E9A",
"K. c #989B96",
"L. c #949189",
"P. c #A29583",
"I. c #A79A87",
"U. c #A69B8B",
"Y. c #9EA19C",
"T. c #AEA28E",
"R. c #A1A49E",
"E. c #ADA394",
"W. c #B1A491",
"Q. c #B6A996",
"!. c #BBAE9B",
"~. c #B4AB9A",
"^. c #BDB19D",
"/. c #B1A48E",
"(. c #A4A7A2",
"). c #A6A9A3",
"_. c #A9ACA7",
"`. c #ACAEA9",
"'. c #AEB1AB",
"]. c #B1B4AE",
"[. c #BCB3A4",
"{. c #B6B9B2",
"}. c #BABDB6",
"|. c #BABDB6",
" X c #BBBEB9",
".X c #B4B6B2",
"XX c #C2B5A2",
"oX c #C6B9A6",
"OX c #CABDAA",
"+X c #C5BCAD",
"@X c #C0B49D",
"#X c #BEC1BB",
"$X c #CFC2AF",
"%X c #D2C5B2",
"&X c #D6C9B6",
"*X c #D9CCB9",
"=X c #D7CCB9",
"-X c #DFD2BF",
";X c #C9CAC8",
":X c #D9DAD6",
">X c #DADBD8",
",X c #DCD1C0",
"<X c #EADDCA",
"1X c #E4D8C5",
"2X c #DFE0DC",
"3X c #EDE0CD",
"4X c #E0E1DE",
"5X c #EEEEEC",
"6X c #E4E5E2",
/* pixels */
"|.|.|.|.|.|.|.|.|.|.|.|.|.|.|.|.}.}.    8 a O X . X . O * $ + & - s I | S.C.J.{.{.{.+X{. X}.|.|.|.}.}.`.U } #X#X#X#X|.|.|.|.|.|.",
"|.|.|.|.|.|.|.|.|.|.|.|.|.|.}.}.|.|.|.{.a 2.B.N.N.V.N.B.N.j.k.i.. 2 -.H c x : ; % X . X O # - 5 P ! | Z.).Y.L } Y.Y.'.|.|.|.|.|.",
"|.|.|.|.}.|.}.}.|.|.|.|.|.{.}.}.|.|.|.|.U n.r.j.y.r.h.t.h.r.h.-.x r.d.d.d.d.d.N.M.M.N.N.N.b & u.V.m.n.u.q.2.H G V e t |.|.|.|.|.",
"|.|.|.|.}.}.}.}.|.|.{.|.|.}.}.}.|.|.|.|./ n.9.w.8.0.r.w.r.w.g.e.c 6.r.r.y.d.r.y.d.r.r.d.1.H h.e.h.h.g.j.g.B.V.m.k.M >  .{.|.|.|.",
"|.|.|.|.|.|.}.}.{.|.|.|.|.|.|.|.|.|.|.|./ b.9.9.8.w.w.8.w.8.w.,.;.r.6.3.6.6.3.6.5.,.6.w.,.:.g.g.g.g.g.g.7.k.g.g.7.M U _.R | {.|.",
"|.|.|.|.|.|.}.}.|.|.|.|.|.|.|.|.|.|.|.|./ b.i.w.5.e.w.5.e.,.w.,.;.r.5.3.3.6.3.6.6.5.6.6.,.:.g.,.0.0.0.0.7.g.0.0.,.m U }.;X:XL | ",
" .{.|.|.|.|.|.|.|.|.|.|.|.|.|.|.|.|.|.|. .b.i.w.8.w.w.8.0.w.r.,.>.r.5.3.3.6.3.6.w.,.9.,.:.,.h.g.g.0.0.0.7.0.0.0.7.m R 5X;XI Z.'.",
"| p f.{.|.|.|.|.|.|.|.|.|.|.|.|.|.|.|.|./ b.9.w.w.w.9.8.w.,.w.<.>.r.6.5.3.6.3.3.w.8.5.g.:.,.k.7.0.0.0.g.0.g.g.7.7.m U I C.}.}.#X",
"+.}.F.s o.{.}.}.|.|.|.|.|.|.|.|.|.|.|.|.! b.9.w.g.,.d.,.M.,.g.;.>.r.6.6.3.5.3.3.6.3.6.6.:.7.h.9.7.g.7.g.7.0.g.7.7.m 7 #X{.#X{./ ",
"}.}.}.}.H.s +.}.|.|.|.|.|.|.|.|.|.|.|.|.! b.8.w.,.r.,.r.,.,.,.<.>.6.5.5.3.6.3.5.6.5.5.5.:.7.h.9.g.7.g.g.7.g.g.7.7.m Y }.#X{.#X{.",
"}.C.! }.}.}.F.K #.|.|.|.|.|.|.|.|.|.|.|.Q n.9.8.r.,.g.,.g.,.,.<.<.6.3.6.3.5.3.5.5.5.5.6.;.7.h.7.g.7.g.7.7.g.g.7.7.m a }.{.#X{.#X",
"}.}.}.}.}.}.|.#XF.s #.}.|.|.|._.K.|.|.|.~ u.3.0.,.g.,.,.M.,.r.;.<.r.3.5.3.6.5.3.6.5.5.6.&.g.h.0.g.7.0.g.7.g.g.7.7.l 7 #X#X{.#X{.",
"}.}.}.}.|.|.|.|.|.|.F.s @.|.|.F.J.|.|.H.X g.r.,.,.g.,.d.,.,.M.;.<.r.3.5.3.5.5.3.6.3.5.5.=.e.g.7.g.7.g.g.7.g.g.7.,.m n {.{.#X{.#X",
"}.}.}.}.|.|.|.|.|.|.|.|.F.s C.|.|.D.    $ g.,.,.d.,.,.,.r.,.,.<.<.r.3.5.3.5.5.3.6.6.5.5.*.e.g.0.g.7.g.7.7.0.0.7.,.m Y #X#X{.#X{.",
"}.}.}.}.|.|.|.|.|.|.|.|.|.|.F.K p   & i 6 k.,.M.r.,.d.,.M.,.,.=.3.6.6.6.3.6.3.3.6.3.6.5.&.g.g.0.g.7.g.7.7.g.g.,.g.k U #X{.#X{.#X",
"}.}.}.}.|.|.|.|.|.|.|.|.|.|.|.|.D.K I }.f k.,.g.,.g.,.r.,.<.M.=.<.6.6.6.3.6.6.3.5.3.5.6.*.g.g.7.g.7.g.g.,.l.g.g.,.k q {.#X{.#X{.",
"}.}.|.|.|.|.|.|.'.#X#X#X#X'.#X#X#X'.x.n 4 k.7.0.,.g.,.,.M.,.g.=.<.r.6.6.<.6.r.<.w.5.5.w.%.g.g.g.7.7.g.g.7.g.g.7.7.l 5 #X#X#X#X'.",
"}.}.|.}.|.|.|.|.#X#X#X'.#X#X'.#X#X#X#X#X4 l.,.0.,.r.,.M.r.,.,.=.<.6.5.<.,.6.6.6.5.w.5.w.%.g.g.,.g.7.7.g.7.0.0.7.0.l 9 #X#X#X#X#X",
"}.}.}.}.|.|.|.|.'.#X'.#X#X#X[.#X'.#X'.'.9 j.,.g.,.r.,.g.,.,.r.=.5.6.,.d.6.r.6.,.5.,.5.5.%.g.g.g.g.7.g.g.7.g.g.0.7.k i #X#X#X#X#X",
"}.}.}.}.|.|.|.|.#X#X#X#X'.#X#X#X#X#X#X#X5 h.,.0.,.M.,.,.M.,.,.<.,.6.6.6.<.6.r.,.6.5.9.9.%.g.g.,.g.7.g.7.7.g.0.7.7.k o f._.#X#X_.",
"}.}.}.}.|.|.|.|.#X].#X#X{.#X{.#X|.|.|.|., h.8.w.,.M.,.r.g.,.w.*.5.6.5.5.6.6.6.6.6.5.6.6.%.h.g.g.g.7.7.g.7.g.g.7.7.m &   8 f.#X#X",
"}.}.}.}.|.|.|.|.#X#X#X].#X{.#X{.|.|.|.|.> g.8.w.,.w.,.r.r.,.w.*.5.6.5.5.,.6.6.<.5.,.5.5.%.g.g.,.g.7.g.g.,.l.g.7.9.j U #X|   8 f.",
"Y.}.}.}.|.|.|.|.#X].#X].{.#X{.#X|.|.|.|.- y.8.w.,.M.,.w.w.,.0.=.,.5.5.5.6.6.6.6.6.5.6.5.%.g.g.g.g.7.g.7.7.g.0.0.7.j < f.#X#X|   ",
"W L Y.}.#X|.|.|.#X].#X#X#X{.#X{.|.|.|.|.& g.8.w.,.g.,.r.g.,.w.*.5.5.5.5.,.6.5.,.6.,.5.6.%.g.g.7.g.,.g.g.7.g.0.7.g.j 7 #X].f.    ",
"o.}.D.I R.}.}.}.}.}.}.}.{.#X{.#X|.|.|.|.* j.3.w.8.w.8.w.e.,.r.=.5.5.5.5.<.5.5.5.6.<.r.6.%.M.g.,.g.7.g.7.,.g.7.l.,.j q f.    8 p ",
"}.#X}.#XD.I R.#X}.}.}.}.#X{.#X{.|.|.#X|.- h.3.9.3.0.8.w.r.,.w.=.5.5.5.5.5.5.5.5.r.<.6.6.%.h.g.8.g.,.g.g.7.0.g.,.g.j .   p i  .#X",
"'.! S.}.}.}.D.W (.#X}.}.{.#X{.#X|.|.|.|., j.8.w.3.e.3.w.r.,.w.=.5.5.5.5.5.6.3.3.w.,.5.6.%.h.g.9.g.7.7.g.7.g.,.g.,.j . i  .{.#X{.",
"}.}.}.}.}.}.}.#XD.W (.}.#X{.#X].{.|.|.|.5 h.8.w.8.w.3.e.r.,.0.=.5.,.5.5.5.6.3.3.6.<.6.6.%.h.0.9.g.7.g.g.7.g.g.g.g.h > #X#X#X{.#X",
"}.}.}.}.}.}.}.}.}.#XD.W ).#X'.| Y.|.|.#X7 k.8.w.3.8.8.0.0.,.w.;.5.3.5.6.3.5.5.<.w.,.r.6.%.g.g.7.g.g.g.7.7.g.g.7.9.j 7 #X#X{.#X{.",
"}.}.}.}.}.}.}.}.}.{.{.}.D.R ).#X|.|.>X5X4 t.8.w.8.w.,.w.r.5.0.=.5.3.5.<.5.5.5.6.6.,.6.6.%.g.g.7.7.7.g.g.7.7.g.,.7.h Z #X{.#X].#X",
"}.}.}.}.}.}.}.}.}.#X{.#X{.#XD.W ;X5XA.p - u.5.w.8.w.8.w.0.w.0.<.w.5.5.5.5.6.5.<.w.<.9.,.%.k.g.7.g.g.7.g.g.g.g.g.7.h I #X#X].#X#X",
"}.}.}.}.}.}.}.}.#X{.#X{.#X{.#X{.D.K U .X5 u.8.w.3.w.8.w.w.,.w.<.w.<.6.3.5.6.5.6.w.,.9.g.%.g.g.7.7.7.7.g.,.g.7.7.7.h Z #X#X#X#X].",
"|.|.|.|.|.|.|.|.|.|.|.|.|.|.|.|.}.|.H.s & y.8.w.8.w.8.w.w.8.8.<.r.3.6.3.3.5.3.3.6.<.5.w.%.j.0.0.0.0.0.0.7.0.g.7.7.h z.#X#X{.#X{.",
"|.|.|.|.|.|.|.|.|.|.|.|.|.|.|.|.}.}.#X.X& y.8.w.,.w.8.w.w.3.e.<.r.<.6.3.6.6.3.3.6.3.6.5.%.h.0.8.g.0.0.g.0.e.0.0.,.h S.{.{.#X{.#X",
"|.|.|.|.|.|.|.|.|.|.|.|.|.|.|.|.}.}.#XK.& i.7.0.w.w.5.w.w.8.w.,.6.3.6.<.6.6.3.3.6.3.5.w.%.j.g.0.0.0.0.0.7.e.0.0.8.g Y.#X#X{.#X{.",
"|.|.|.|.|.|.|.|.|.|.|.|.|.|.|.|.}.}.'.5 O . . . . X . . X # % ; g b H H -.-.>.3.5.,.w.5.%.j.0.0.g.0.0.g.0.e.e.9.,.@ o.#X{.#X{.#X",
"|.|.|.|.|.|.|.|.|.|.|.|.|.|.|.|.}.|.P , { ' ' _ ) ( F A N r 9 < ; * & O O . . . . . . . X X # $ ; 2 e h 2 : $ o . n Y.n o.#X#X#X",
"|.|.|.|.|.|.|.|.|.|.|.|.|.|.|.|.|.F., C C J ( ( ` ` _ _ _ ' ' ' { ' ' { 2.' { { ' ' ' ' _ _ _ ) ) F F F ^ ) ) 6 . #X#X#XY.L o.#X",
"#.}.|.|.|.|.|.|.|.|.|.|.|.|.|.|.}.5 F N . . . + $ * , w N V A G G ( J ( ( ( ( ( ( ` ( ` _ _ _ ' _ ' ' ' ' ' { ; n #Xo.f.#X#XY.L ",
"o.L / .X|.|.|.|.|.|.|.|.|.|.|.|.R 9 V $ , w w 3 1 1 , = $ # o X . . . . . . . X o $ * , 3 z V D F G ( ( J ( ( . Y.#X).#X#X#X2X5X",
"(.|.(.L } {.|.|.|.|.|.|.|.|.|.R.$ D e @ 3 z z y e e e e e w w w w w w w w w w w 9 9 < , = * $ + X X . . . . . > #X#X#X#X:X5XK.L ",
"|.|.{.|.).L / {.|.|.|.|.|.|.#X4 C N . w y N z z N z z x z y y y r r r w e w w w w w w w w w w w w w w w w w . R.#X{.2X5XD.L Y.#X",
"|.+.O.|.}.}.(.I / {.|.|.|.|...= V * = w N z N z z z y z y y y y r r r w e w w w w w w r w w w w w w w w w & 4 #X:X5XF.L Y.{.#X#X",
"|.|.|.|.}.}.}.}.(.P  .{.|.'.O D y X e N N N N N z z N x z z y y r r r r w e w w w w w w w w w w w w e w w . &X5XA.L Y.#X#X#X{.#X",
"|.|.}.}.}.}.}.}.|.|.).P  .6 z B X 9 y N N N N z z N z z z y y y r r r w r w w w w w w w e w w w $ @ o w > > D.L Y.].].#X#X{.#X{.",
"|.}.}.}.}.}.}.}.|.|.|.|.O.$ V , & e N B B N N N z N z z z x z y r r r w r w w 6 o + . $ 3 w = @ v.T.Y . . n Y.#X#X#X#X#X{.#X{.#X",
"|.|.}.}.}.}.}.}.|.|.|.{.- D z . w z B N N N N z z z z z z z y y r r r r w r # @ T.^.^.~ X . + { [ a.c.T + #X#X#X#X#X].#X#X{.#X{.",
"|.|.}.}.}.}.}.}.|.|.|.U r B X 5 e N B B B N N N N z z z y . . X & w r r r . t oXE.I.I.T.[.E.f . X N [ . z.#Xf. .#X].#X#X].#X{.#X",
"|.|.|.|.|.|.|.|.|.|._.- D < + 3 Z B B B B N N N N N z z + x.[.] # . . X . E x.p.p.v.P.U.I.I.Q.oXG., . @ o.}.'.}.}.}.}.}.}.}.}.}.",
"|.|.|.|.|.|.|.|.|.|.7 D N . w z B B B B B N N N N z z $ $.=X+X&X=X=XQ.~ o . . * T a.p.a.p.x.P.I.I.^.. D._.U o.}.}.}.}.}.}.}.}.}.",
"|.|.|.|.|.|.|.|.|.+.6 V o , e B B B N N B N B N N z = Q *X@X!.!.!.!.OX&X*X*XT.Y o . . 7 ) p.p.p.v.] + |.}.}._.U #.}.}.}.}.}.}.}.",
"|.|.|.|.|.|.|.|.}.5 D 1 o w B B & = w N B B N N N < f *XOX!.!.!.!.!.!.!.!.!.OX&X*X*XP.f X X O v { @ Y.|.}.}.}.}._.W +. X}.}.}.}.",
"|.|.}.}.}.}.|.|.] C N . w x B & & 5 . . . # 5 z 3 ; I.P.c.P./.Q.!.!.!.!.!.!.!.!.!.^.OX&X*X&Xx.t X + }.}.}.}.}.}.}.}._.U +.}.}.}.",
"|.|.}.}.}.}.|.'.> V + = e B = . 1X<X<X<XE.E # . . O t [ c.c.c.c.c.P.U.Q.!.!.!.!.!.!.!.!.!.^.+X=XO S.}.}.}.}.}.}.}.}. X}._.W +. X",
"H.|.|.}.}.}.}.@ A 3 @ w z < . +X<X%X$X&X,X<X<X3X,Xz.f @ . . * T p.c.c.c.c.c.I.W.!.!.!.!.!.!.!.G.O }.}.}.}.}.}.}.}.`.! H. X X].@.",
"K.s S.#X}.}.7 r B . 9 y u . z.<X$X$X$X$X$X$X%X%X&X1X<X3X<X+X] - . . X u [ c.c.c.c.c.P./.!.!.!.+ S.}.}.}.}.}.}.}.}.}. X X#X6X5XH.",
"    i W K.D.+ V # $ 3 N . Z 3X&X%XOX%X%XOX%X$X$X$X$X$X$X%X*X<X<X<X1XU.P O . . & T v.c.c.c.c.p.+ }.}.}.}. X}.}.}.}.}.#X6X5XY.p I ",
"p I _.|.}.@ A w . e N + # XX$XOX%XOXOX%XOX%X$X%X$X$X$X$X$X$X$X$X%X%X-X<X<X3X*XX.6 . . X t [ + O.}.}.}.}.}.}.}. X#X4X5X(.K L `. X",
").|.|._.n . X . * 1 1 . Q.^.E./.W.W.W.W.^.oXOXOX$X$X$X$X$X$X$X$X%X%X$X$X%XOX=X1X<X3X<X[.E $ . |.}.}.}.}.}.}.#X6X5X'.K L (.}. X X",
"|.|.}.A.Y.{.}.R.O.n > + . o , T a.G.T.T.W.W.W.W./.Q.Q.XXOXOX$X$X%X+X$X$X%X%X%XOX$X$X$X&X1X-  .Z.| }.}.}.#X>X5X.Xs L (.}. X}.}. X",
"|.#X{.#X|.|.|.|.}.}.}.K.Y.}.Y.f.@.Q - @ X = v $.x.U.W.W.W.W.W./.W.!.oX+XOX%X$X$X$X$X$X$X[.@ }.'.}.}.}.>X5X XK L (.}.}.}.}.}.}.}.",
"#X{.#X{.|.|.|.|.}.}.}.}.#XK.(.|.|.;X5X;XI L A. .v a - + # q ] z.P.T.W.T.W.W.W.W.[.OX$X$X- L L ).}.:X5X XL L (.}. X}.}.}.}.}.}.}.",
"{.#X{.#X|.|.|.|.}.}.}.}.}.}.|.Y.:X;XI P R.|.|.|.|.|.|.|.}.{.(.Q f & X . + * f ~ s.G.T.x.@ }..X} Q  XL L ).}.}.#X}.}.}.}.}.}.}.}.",
"#X{.#X{.|.|.|.}.}.}.}.}.}.}.}.}.|.D.Q ].|.|.S.} |.|.|.|.}.}.}.|.|.|.}.}.{.(...v 5 @ . . D.}. X X.X} L '.}.}.Y.Q ).}.}.}.}.}.}.}."
};
