/* XPM */
static char *_7430ac92a61489eee8165935c22f8d6Y2CXIfusZFiy0Qsa[] = {
/* columns rows colors chars-per-pixel */
"64 64 210 2 ",
"   c None",
".  c #020201",
"X  c #0B0807",
"o  c #130C07",
"O  c #1F140C",
"+  c #141514",
"@  c #1A1B1A",
"#  c #22150D",
"$  c #29170B",
"%  c #2C1D13",
"&  c #241814",
"*  c #331F14",
"=  c #301609",
"-  c #342215",
";  c #3A2315",
":  c #3D2619",
">  c #3C291C",
",  c #342218",
"<  c #20201E",
"1  c #1F2424",
"2  c #232323",
"3  c #262B2C",
"4  c #292D2D",
"5  c #292520",
"6  c #292F30",
"7  c #2C3132",
"8  c #353B3C",
"9  c #383D3E",
"0  c #333635",
"q  c #32312E",
"w  c #421208",
"e  c #452C1D",
"r  c #482B18",
"t  c #4A311B",
"y  c #582611",
"u  c #682D13",
"i  c #79381A",
"p  c #432E21",
"a  c #4B3323",
"s  c #4F392B",
"d  c #4A3528",
"f  c #523B2E",
"g  c #573623",
"h  c #553E32",
"j  c #483D32",
"k  c #663C22",
"l  c #6D441E",
"z  c #594437",
"x  c #654426",
"c  c #754C27",
"v  c #76512B",
"b  c #684934",
"n  c #765435",
"m  c #3A3F40",
"M  c #3E4344",
"N  c #414646",
"B  c #44494A",
"V  c #494E4E",
"C  c #464847",
"Z  c #4A504F",
"A  c #4C5151",
"S  c #525655",
"D  c #5B5D5B",
"F  c #575956",
"G  c #544B40",
"H  c #675447",
"J  c #604D40",
"K  c #5B605E",
"L  c #61635E",
"P  c #5E6261",
"I  c #626564",
"U  c #666B69",
"Y  c #6A6E6B",
"T  c #686A66",
"R  c #6E716D",
"E  c #72736E",
"W  c #6E7371",
"Q  c #717573",
"!  c #757A76",
"~  c #797D7A",
"^  c #787B77",
"/  c #843C1A",
"(  c #85441A",
")  c #984818",
"_  c #B55B18",
"`  c #A45E16",
"'  c #985324",
"]  c #8E5026",
"[  c #A55D2A",
"{  c #9B6738",
"}  c #A8692C",
"|  c #B3692B",
" . c #A86834",
".. c #AC723A",
"X. c #BA7A3B",
"o. c #B7732C",
"O. c #C7742D",
"+. c #C67436",
"@. c #D17D35",
"#. c #D57328",
"$. c #E27D2C",
"%. c #A87749",
"&. c #BB7E43",
"*. c #A67C57",
"=. c #936E4F",
"-. c #C67D46",
";. c #7D807D",
":. c #C8833C",
">. c #D3843A",
",. c #DC893D",
"<. c #D78438",
"1. c #E38535",
"2. c #E5893B",
"3. c #E98B38",
"4. c #EA913E",
"5. c #EC8D34",
"6. c #B88453",
"7. c #82847F",
"8. c #BD8F64",
"9. c #C9854A",
"0. c #D58C44",
"q. c #DB8C42",
"w. c #D58A48",
"e. c #DA924C",
"r. c #DA934B",
"t. c #DC8F50",
"y. c #D89856",
"u. c #C58859",
"i. c #E38E42",
"p. c #EB9B4C",
"a. c #E79449",
"s. c #E59B54",
"d. c #F19E52",
"f. c #EDA154",
"g. c #E6A05C",
"h. c #EBA35C",
"j. c #EFAA5F",
"k. c #F1A355",
"l. c #F2A55A",
"z. c #F6AA5C",
"x. c #DE9E69",
"c. c #E29E61",
"v. c #DEA266",
"b. c #D9A97A",
"n. c #EDAB64",
"m. c #EBAD6B",
"M. c #E6A565",
"N. c #F3AD65",
"B. c #F3AE68",
"V. c #F2A760",
"C. c #F3B26C",
"Z. c #F7B262",
"A. c #E8AD72",
"S. c #ECB47C",
"D. c #F4B672",
"F. c #F6B976",
"G. c #F4BB7D",
"H. c #F6B979",
"J. c #7F8381",
"K. c #828581",
"L. c #868985",
"P. c #8A8D8A",
"I. c #898C87",
"U. c #8E928E",
"Y. c #90938E",
"T. c #8F9292",
"R. c #929692",
"E. c #969994",
"W. c #989B96",
"Q. c #9B9E9A",
"!. c #9EA19C",
"~. c #A1A49E",
"^. c #A4A7A2",
"/. c #A6A9A3",
"(. c #A9ACA6",
"). c #ACAEA9",
"_. c #AEB1AB",
"`. c #B1B4AE",
"'. c #B4B6B1",
"]. c #B6B9B2",
"[. c #BABDB6",
"{. c #BBBEB9",
"}. c #B7B9B8",
"|. c #EBBB88",
" X c #F2BE87",
".X c #BEC1BB",
"XX c #F6C286",
"oX c #F9C384",
"OX c #F6C38B",
"+X c #FAC68A",
"@X c #FBC98C",
"#X c #F6C692",
"$X c #FACB94",
"%X c #FBCD9A",
"&X c #F7C996",
"*X c #FDD19D",
"=X c #FCD7A6",
"-X c #FEDCB3",
";X c #C4C5C4",
":X c #C9CBC6",
">X c #CBCCCA",
",X c #C6C8C7",
"<X c #D9DAD6",
"1X c #DADBD8",
"2X c #DED0C4",
"3X c #DFE0DC",
"4X c #E5E1DD",
"5X c #FFEFD2",
"6X c #EDEDEB",
"7X c #E6E6E3",
/* pixels */
"[.[.[.[.[.[.[.[.[.[.[.[.[.[.[.[.[.[.    3 W [.[.[.[.[.[.[.[.[.[.[.[.[.[.[.[.[.[.[.[.[.[.[.[.[.[.[.[.[._.V P ].[.[.[.[.[.[.[.[.[.",
"[.[.[.[.[.[.[.[.[.[.[.[.[.[.[.[.[.[.[.].    6 Q [.[.[.[.[.[.[.[.[.[.[.[.[.[.[.[.[.[.[.[.[.[.[.[.[.[.[.[.[._.A I ].[.[.[.[.[.[.[.",
"[.[.[.[.[.[.[.[.[.[.[.[.].[.[.[.[.[.[.[.[.].    6 Q [.[.[.[.[.[.[.[.[.[.[.[.[.[.[.[.[.[.[.[.[.[.[.[.[.[.[.[.[._.V U ]..X[.[.[.[.",
"[.[.[.[.[.[.[.[.[.[.].[.[.[.[.[.[.[.[.[.[.[.[.[.    3 ! [.[.[.[.[.[.[.[.[.[.[.[.[.[.[.[.[.[.[.[.[.[.[.[.[.[.[.[..X).V U ].[.[.[.",
"[.[.[.[.[.[.[.[.[.[.[.[.[.[.[.[.[.[.[.[.[.[.[.[.[.].    4 ;.[.[.[.[.[.[.[.[.[.[.[.[.[.[.[.[.[.[.[.[.[.[.[.[.[.[.W.`.[.).V R ].[.",
"[.[.[.[.[.[.[.[.[.[.[.[.[.[.[.[.[.[.[.[.[.[.[.[.[.[.[.].    6 ;.[.[.[.[.[.[.[.{.[.[.[.[.[.[.[.[.[.[.[.[.[.[.{._.U.`.[.[.:X<XM R ",
"U ].[.[.[.[.[.[.[.[.[.[.[.[.[.[.[.[.[.[.[.[.[.[.[.].I E.[.].    6 ;.[.[.[.[.[.[.[.[.[.[.[.[.[.[.[.[.[.[.[.[.[.[.[.[.:X6X,XB J._.",
"Y 7 ~ [.[.[.[.[.[.[.[.[.[.[.[.[.[.[.[.[.[.[.[.[.[.[._.[.[.T         7 ;.[.[.[.[.[.[.[.[.[.[.[.[.[.[.[.[.[.[.[.[.:X6X,XB J..X[.[.",
"! ].U.8 R [.[.[.[.[.[.[.[.[.[.[.[.[.[.[.[.[.[.[.[.[.[.Y     2 q Q _.    7 J.[.[.[.[.[.[.[.[.[.[..X.X.X.X.X.X:X7X,XM ;..X]..X'.L ",
"[.[..X[.R.8 ! [.[.[.[.[.[.[.[.[.[.[.[.[.[.[.[.[.[.7.    3 6 Q [.[.[.[.].    7 L.[.[.[.[.{.[.[.[..X.X.X.X:X6X.Xz J..X.X]..X]..X'.",
"[.K.D ].[..XU.8 ! [.[.[.[.[.[.[.[.[.[.[.[.[.[.;.    4 7 Q [.[.[.(.S !.[.[.].    7 L.[.[./.F W.[..X).>X6X.XM ;..X.X.X]..X.X.X.X'.",
"[.[.[.[.[.[.[..XU.8 ^ [.[.[.[.(.Q.[.[.[.[.;.    @ 7 W [.[.[.[.[.[.[.[.[.[.[.[.[.    7 L.[.[.[.[..X7X>XM J..X`..X.X]..X].'.'..X.X",
"[.[.[.[.[.[.[.[.[.[.U.8 ~ [.[.R.Q.[.[.Y.    1 7 W [.[.[.[.[.[.[.[.[.[.[.[.[.[.[.[.[.    7 U.:X6X:XM ;..X.X.X.X.X.X.X.X.X.X.X'..X",
"[.[.[.[.[.[.[.[.[.[.[..XU.8 J.[.[.Y.    3 6 R [.[.[.[.[.[.[.[.[.[.[.[.[.[.[.[.[.[.[.[.].    B N ;..X.X.X~._..X`._..X`.`.'..X`..X",
"[.[.[.[.[.[.[.[.[.[.[.[.[.[.Y.8 7   + 6 W [.[.[.[.[.[.[.[.[.}.}.[.[.[.[.[.{.[.[.[.[.[.[.[.].    6 R .X.X;./.`..X.X.X.X.X`..X.X.X",
".X[.[.[.[.[.[.[.[.[.[.[.[.[.[.{.T.8 B [.[.[.`.Y ).[.[.[.[.}.(.q @ @ + 5 + & U !.[.[.[.[.[.[.[.[.    1 U `..X.X.X_..X`..X.X.X.X`.",
"[.[.[.[.[.[.[.[..X].[.[.[.[.[.[.[.[.7.z ;..X.X/.[.[.[.[.Y.q X # * e : e p > # o L !.[.[.[.[.[.[..X.XT   3 E .X.X.X'..X.X'..X.X'.",
"[.[.[.[.[.[.[.[.[.[.[.[.[.[.[.[.[.[.[.[.E.9 ;..X[.[.[.C $ ; r * * * * e p d J H s # R [.[.[.[.[..X.X.X.XR   3 Q '..X'..X.X'..X.X",
"[.[.[.[.[.[.[.[.[.[.]..X[.[.[.[.[.[.[.[..X.XY.9 P.}.D # , * % & # # # # * r f H H z $ T [.[.[.[.'..X'..X`..XR   3 ;.]..X`..X'..X",
"[.[.[.[.[.[.[.[.[.[.[.].[.[.[.[.[..X[.[.`..X.X.XU.6 # * % # e c [ %.%.] = O r p s z z % ! [.[.[..X.X`..X.X.X.X.XR   3 ;..X.X`..X",
"[.[.[.[.[.[.[.[.]..X]..X]..X.X].]..X.X`..X.X.X`./.q * * c &.r.s.s.n.n.m.v.%.r * e s z s o R..X[..X`.`..X.X.X.X_.]..XR   3 ;..X.X",
"[.[.[.[.[.[.[.[.]..X.X]..X].]..X.X]..X.X.X`.`..X+ % , { p.p.f.f.V.B.D.G.G. Xm.k r a z z e D [.[..X.X.X.X.X`..X_..X]..X].R   3 ;.",
"!.[.[.[.[.[.[.[..X]..X].]..X.X].].[.`..X.X`..X/.# % X.s.p.d.V.V.N.C. X+X#X$XOX Xx ; s h a o ^.[.`..X`.`..X.X`..X].].T ;.[..XT   ",
"A M !.[.[.[.[.[.]..X].]..X].]..X[.[..X`..X.X`.;.$ t l.d.h.n.N.N.Z.F.oX+X@X$X#X#XM.g a j s # ^ {..X.X.X.X`..X.X.X.X.X`.[.[.Q     ",
"R ].U.B !..X.X.X`.`..X.X.X`..X].[.[.[.[..X].`.o - p.0.:.l.N.B.N.k.k.C.H. XoX%X&X X8.> s f % X }.]..X]..X.X.X]..X]..X.X;.    3 6 ",
".X.X[..XU.C !..X.X.X.X`..X`.]..X[.[.[.[.].].~.o o.l t y ' l.B.@.( u / | c.H.&X%X Xb.e a f * . [..X]..X].].]..X].].;.    7 6 U ].",
"_.D I.[.]..XU.V ~..X.X.X.X.X.X.X[.[.[.[..X.XY.; | ' ' l / V.z.i w u i u / t.%X%X#Xb.b p f , X [.]..X]..X.X]..X;.    @ 7 U ]..X[.",
".X].[.[..X]..X.XY.Z ~.`.`..X.X_.[.[.[.[..X.XW.t <.>.O.#.p.Z.D.} ) <.q.t.t.a. X%X&X|.n p d % . ).I.]..X]..XU.    1 7 U ]..X[.[.[.",
"]..X.X]..X]..X]..X.X7.Z /..X).R W..X.X.X<X6X5 v ' ' ( ] z.D.$X|._ #.)  .s.m.G.&X&X|.b p s % X !.!..X].U.    3 4 T ].]..X]..X]..X",
".X].]..X]..X]..X.X.X.X.XY.Z ~..X[..X<X6XI.q < X.q.p.V.B.B.oX$X-X|.3.@.` @.d.D.#X&X|.d p a $ 3 ]..XU.    + 6 U .X.X]..X]..X]..X].",
"].]..X]..X]..X].`.`..X_..X.X7.Z :X6X7.7 ;..Xq f.g.h.n.H. X$X=X%XoXa.4.4.Z.n.D.OX&Xb.> a p O ;.M 4   @ 7 I ]..X.X.X].]..X]..X]..X",
".X.X]..X]..X]..X.X.X.X.X.X.X.X.X7.M Z .X.X/.l f.M.q.+.+.p.-.x.$X2.N.D.C.G.+XXX#XOX*.e t d o !..X~.M 9 '..X.X_.T Y..X.X]..X]..X].",
"[.[.[.[.[.[.[.[.[.[.[.[.[.[..X].`..XR.0 ;.!.] g.t.2./ | 4.w w k.$.k.C.F.=X5X%X$Xb.b t d a o (..X.X.X!.M U .X.X/..X.X.X.X.X.X`..X",
"[.[.[.[.[.[.[.[.[.[.[.].[.[.]..X.X.X.X.XR.7  .r.@.s.i.1.2.1.s.f.$.a.N.oX=X-X=X%X8.t > z z X `..X.X`..X.X!.8 U .X_..X_..X_..X`..X",
"[.[.[.[.[..X[.[.[.[.[..X[.[..X]..X.X.X'..XU...>.<.q.i.2.<.k.D.oXa.i.N.@X%X%X%X&X6.b 6.b.=.F .X.X.X`..X.X.X.X~.z ;..X.X.X.X.X.X.X",
"[.[.[.[.[.].[.[.[.[.[.[.[.[.]..X.X`..X.X.X;. .r.<.<.l.i.3.4.l.H.B.1.N.$X%X=X%X&XS.b.XXG.8.F .X`..X.X.X`..X.X.X].E.M ;.(.`.`..X`.",
"[.[.[.[.[.[.[.[.[.[.[.[.]..X].]..X.X`..X[.L.X.e.,.@.+.9.9.u.9.a.k.1.l.@X%X=X$X$XF.F.v.:...L .X`..X_.`..X.X`.]..X`..X~.M ;..X.X`.",
"[.[.[.[.[.[.[.[.[.[.[.[..X]..X].`..X.X.X[.. ..e.@.u.7X6X7X6X2XO.$.3.N.@X$X*X%X+XG.S.o.o.v ;..X.X.X.X.X.X]..X.X]..X.X.X`.Q.M ;..X",
";..X[.[.[.[.[.].[.[.[.[.]..X.X].`..X`..X[.. 6.e.O.k N < 5 2 C ( _ p.C.oX@X%X%X$XXXA.` :.5 _.`..X.X.X`.`..X]..X].`..X;.;..X.X!.N ",
";.9 L `.[.[.[..X[.[.[.[.]..X]..X.X.X`..X[.. X.y.<.( $ . X . o ` 1.z.D.+X+X$X$X$X|.y.:.&.+ .X.X.X_..X.X.X]..X]..X`..X_.`..X.X<X7X",
"W..X/.N L `..X.X.X_..X.X.X`..X]..X.X.X.X_.;.} r.0.,.<.1.:.4.j.C.N.Z.D.H.XXoXOXOXS.A.v.z _..X`.`.]..X]..X.X`.`..X.X.X.X.X<X6XE.N ",
".X`.`.[.~.N L `..X.X.X`..X.X.X.X.X_..X_..X~.v r.r.0.4.,.p.F.oXF.C.N.C.D.G.G.G.G.m.y.z U .X.X.X.X.X]..X]..X.X.X.X.X`.<X6XU.N !..X",
"].;.;.[..X`.~.N K .X.X.X`.`..X.X.X.X.X.X.X.Xj X.r.r.q.q.4.n.D.C.C.N.C.C.m.m.m.v.b 6 .X.X.X`..X.X].].`..X`..X.X.X<X6XY.N Q._..X.X",
".X[._.`..X.X.X.X~.M S .X.X.X`.;.;..X_..X.X<XI c 0.0.q.5.4.j.C.C.C.C.C.N.g.g.y.v M M J.`..X`..X/.`..X.X.X`..X<X6X7.Z ~..X.X.X.X.X",
"[.[.[.[.`.`..X]..X.XE.9 K .X.X~..X.X.X3X6X.X9 o o.:.0.q.r.j.n.Z.C.C.N.g.s.0.; I..X.X7.M Y..X.X;.7..X.X.X3X6XY.N W..X]..X.X_..X.X",
"[.]..X[..X.X]..X.X(..X.X~.M I .X.X<X6X.X9 N !..X; o.:.>.r.r.y.j.n.n.M.a.] $ !..X.X.X.X.XY.M Y..X.X.X<X5X7.N ~..X.X]..X]..X.X.X`.",
"[.[.[.[.[.]..X]..X.X.X.X.X.X!.M ;..XN M !..X.X.X7.- o.>.>.0.r.r.s.h.e.l G `..X]..X_..X.X.X.X7.N .X6XU.M !..X`._..X].`..X.X.X.X`.",
"[.[.[.[.[..X]..X.X.X(..X.X.X.X.X!.M S .X.X.XY.Z _./.;.O v } :.:.{ a 0 Y..X.X]..X.X.X.X_..X.X.X.XJ.N K .X]..X;.;..X`..X.X`.`..X.X",
"[.[.[.[.[.[.[.[.[.[.[.[.[.[.[.[.[.[.~.N ;.`._.].].[.[.~.< @ 5 @ 5 7.].[.[.[.[.[.[.[.[.[.[..X]..X.X.X^.M ;.`._..X`..X.X`..X]..X].",
"[.[.[.[.[.[.[.[.[.[.[.[.[.[.[.[.[.[..X[.~.M ;..X.X].[.[.]..X[.[..X[.[.[.[.[.[.[.[.[.[.[.[.].].]..X.X.X.X/.B ;.`.`..X.X`.]..X]..X",
"[.[.[.[.[.[.[.[.[.[.[.[.[.[.[.[.[.[.[.[..X].~.N ;.].[.[..X]..X]..X.X[.[.[.[.[.[.[..X.X].]..X]..X(..X.X.X.X]./.N ;..X.X.X]..X.X].",
"[.[.[.[.[.[.[.[.[.[.[.[.[.[.[.[.[.[.[.[.]..X.X].!.N ;.[.]..X]..X.X].[.[.[.[.[.[.[.].].[.[.]..X]..X.X.X.X]..X.X.X/.Z ;.`..X]..X].",
"[.[.[.[.[.[.[.[.[.[.[.[..X[.[.[.]..X].[.`..X.X`.].].~.B ;.]..X`.].[.[.[.[.[.[.[.[.[.[.[.`..X]..X.X.X.X.X`..X`..X.X.X_.Z ;..X]..X",
"[.[.[..X[.[.[.[.[.[.[.[.].[.[.[..X].[.[..X`..X.X.X].]..X~.N ;..X.X].[.[.[.[.].[.[.[.[.[..X.X.X]..X_._..X`..X.X.X.X.X.X.X~.Z ;.].",
"7..X.X.X[.[.[.[.[..X[.[.[.[.[.[.]..X.X]..X].`..X].(.D E..X]./.Z ;.].[.[.]..X[.[.[.[.[.[..X`..X`..X.X.X.X.X.X.X`.`./.S 7..X.X_.;.",
"~.9 ;..X[.[.[.[.[.[.[.[.[.[.[.[..X].]..X]..X.X.X.X].]..X.X:X7X:X9 N Z !.[.[.[.[.[.[.[.[..X`..X.X.X_._..X.X`.`..X.X.X.X.X.X3X6XY.",
"    q Z ~..X[.[.[.[.[.[.[.[.[.[..X`..X.X.X`..X`..X.X.X:X7X:XB M !..X].;.0 7.]..X.X.X.X.X.X_..X`..X`.`..X.X_..X.X`..X.X3X6X~.7 M ",
"0 Z /..X.X7.!.[.[.[.[.[.[.[.[.[..X`..X`.`..X.X.X.X:X7X:XB N ~..X[.]._.[._.;.M ~..X.X_..X.X.X.X`..X.X.X.X.X.X.X.X.X<X6X^.8 M .X.X",
"(..X[._./.[.[.W.W.:X.X[.[.[.[.[..X.X.X.X.X.X.X:X7X:XN N ~..X[.[.[.;.;.[.]..X].;.9 ~..X.X`.`..X.X`..X.X_..X_..X3X6X(.0 N !.(..X.X",
".X.X[.7.~.[.[.[.[.7.!..X[..X:X7._..X.X.X.X.X7X:XB M !.]..X.X[.[.[.[..X[..X].`.(..XL 9 ~..X.X.X;.L .X.X.X.X<X7X.X0 Z /..X.X.X.X.X",
".X.X_..X[.[.[.[.[.[.[.W.~.[./.7..X.X.X:X7X:XN 9 ~..X.X`.[.[.[.[.[.[.[.[.].[.[.[..X.X_.L N /..X_..X.X.X<X6X.X0 N !..X.X_..X.X.X(.",
".X.X`..X[.[.[.[.[.[.[.[.[.!./..X.X:X7X.XZ N ~..X.X.X.X.X[.[.[.[.[.]..X[.[.[.[.[.`..X.X`..XK N /..X:X6X.X8 M /..X.X`..X.X.X.X.X.X",
".X`..X.X[.[.[.[.[.[.[.[.[.[.[.!.<X:XN M ~..X.X.X.X`.`..X[.[.[.[.[.[.[.[.[.[.[.[.`..X.X.X.X.X).K Z .XM N ~..X.X.X.X.X.X.X.X)..X).",
"`..X.X`.[.[.[.[.[.[.[.[.[.[.[.[..X7.S _..X.X;.D .X.X`..X[.[.[.[.[.[.[.[.[.[.[.[..X.X_..X_..X.X.X.XK M (..X.XW.S ~.`._..X.X.X.X.X"
};
