/* XPM */
static char *eff3f443ad2548afc586556daefbbe13GshVVCZGqvIiH4vb[] = {
/* columns rows colors chars-per-pixel */
"64 64 136 2 ",
"   c None",
".  c #131617",
"X  c #171B1B",
"o  c #181D1D",
"O  c #1F2424",
"+  c #202426",
"@  c #262B2C",
"#  c #282D2E",
"$  c #292F30",
"%  c #2C3133",
"&  c #303536",
"*  c #313738",
"=  c #353B3C",
"-  c #383E3F",
";  c #3A3F40",
":  c #3D4243",
">  c #414646",
",  c #424748",
"<  c #44494A",
"1  c #494E4E",
"2  c #4A504F",
"3  c #4C5151",
"4  c #525655",
"5  c #555856",
"6  c #565A59",
"7  c #5A5D5C",
"8  c #5D615F",
"9  c #5E6261",
"0  c #616564",
"q  c #676A67",
"w  c #686A66",
"e  c #666B69",
"r  c #6A6E6B",
"t  c #6E716D",
"y  c #73746F",
"u  c #6E7371",
"i  c #717572",
"p  c #757976",
"a  c #777C79",
"s  c #797D7A",
"d  c #7D817D",
"f  c #7F8380",
"g  c #828582",
"h  c #868985",
"j  c #898C87",
"k  c #898D8A",
"l  c #8E928D",
"z  c #90938F",
"x  c #8F9292",
"c  c #939692",
"v  c #969994",
"b  c #989B96",
"n  c #9B9E9A",
"m  c #9EA19C",
"M  c #A1A49F",
"N  c #A4A7A2",
"B  c #A3A6A1",
"V  c #A4A8A2",
"C  c #A6A9A3",
"Z  c #A7AAA4",
"A  c #A6A9A4",
"S  c #A8ABA5",
"D  c #A8ACA6",
"F  c #A9ACA6",
"G  c #AAACA6",
"H  c #AAADA7",
"J  c #A9ACA7",
"K  c #ABAEA8",
"L  c #ACAFA9",
"P  c #ABADAB",
"I  c #ADB0AA",
"U  c #AEB1AB",
"Y  c #AFB2AC",
"T  c #AFB2AC",
"R  c #B0B3AD",
"E  c #B1B4AD",
"W  c #B2B5AE",
"Q  c #B2B5AF",
"!  c #B3B6AF",
"~  c #B1B4AE",
"^  c #B3B6B0",
"/  c #B4B7B0",
"(  c #B4B7B1",
")  c #B3B6B2",
"_  c #B5B8B1",
"`  c #B6B9B2",
"'  c #B6B9B3",
"]  c #B7BAB3",
"[  c #B7BAB4",
"{  c #B5B8B2",
"}  c #B8BAB4",
"|  c #B8BBB4",
" . c #B9BBB5",
".. c #B9BCB5",
"X. c #BABCB6",
"o. c #BABDB6",
"O. c #BBBDB6",
"+. c #BBBEB7",
"@. c #BABDB6",
"#. c #B7B9B8",
"$. c #BCBFB8",
"%. c #BBBDB9",
"&. c #BEC1BA",
"*. c #C4C5C4",
"=. c #C4C6C4",
"-. c #C5C6C5",
";. c #C5C7C6",
":. c #C0C1C0",
">. c #C6C8C6",
",. c #C7C9C7",
"<. c #C6C8C7",
"1. c #C9CBC5",
"2. c #CACCC7",
"3. c #C9CBC6",
"4. c #CBCDC8",
"5. c #CACCC9",
"6. c #CBCCCB",
"7. c #D6D7D4",
"8. c #D7D8D7",
"9. c #D7D9D6",
"0. c #D9DAD6",
"q. c #DCDDD9",
"w. c #DCDDDA",
"e. c #DCDDD9",
"r. c #DFE0DC",
"t. c #E0E1DE",
"y. c #E3E4E1",
"u. c #ECECEA",
"i. c #ECEDEA",
"p. c #ECECEB",
"a. c #ECEDEB",
"s. c #EDEDEB",
"d. c #EDEDEC",
"f. c #EEEEEC",
"g. c #EEEEEC",
"h. c #F0F0EE",
/* pixels */
"o.o.o.o.o.o.o.o.o.o.o.o.o.o.o.o.....    # u o.o.o.o.o.o.o.o.o.o.o.o.o.o.o.o.o.o.o.o.o.o.o.o.o.o.o.o.o.K 2 0 { o.o.o.o.o.o.o.o.o.",
"o.o.o.o.o.o.o.o.o.o.o.o.o.o.[ o.o.o.o.{     % i { o.o.o.o.o.o.o.o.o.o.o.o.o.o.o.o.o.o.o.o.o.o.o.o.o.o.o.o.L 3 0 { o.o.o.o.o.o.o.",
"o.o.o.o.o.o.o.o.o.o.o.o.o.o.o.o.o.o.o.o.o.{     # p o.o.o.o.o.o.o.o.o.o.o.o.o.o.o.o.o.o.o.o.o.o.o.o.o.o.o.o.o.L 2 e [ o.o.o.o.o.",
"o.o.o.o.o.o.o.o.o.o.[ o.o.o.o.o.o.o.o.o.o.o.o.[     # p o.o.o.o.o.o.o.o.o.o.o.o.o.o.o.o.o.o.o.o.o.o.o.o.o.o.o.o.o.K 3 e { o.o.o.",
"o.o.o.o.o.o.o.o.| [ o.o.o.o.o.o.o.o.o.o.o.o.o.o.o.{     # d o.o.o.o.o.o.o.o.o.o.o.o.o.o.o.o.o.o.o.o.o.o.o.o.o.o.b E o.K 3 r [ o.",
"o.o.o.o.o.o.o.[ o.o.o.o.o.o.o.o.o.o.o.o.o.o.o.o.o.o.+.{     $ d o.o.o.o.o.o.o.o.o.o.o.o.o.o.o.o.o.o.o.o.o.o.o.Y l E o.o.2.8.: t ",
"e { o.o.o.o.o.o.o.o.o.o.o.o.o.o.o.o.o.o.o.o.o.o.o.{ 0 c o.{     $ d o.o.o.o.o.o.o.o.o.o.o.o.o.o.o.o.o.o.o.o.o.o.o.o.2.i.,.< f Y ",
"r % s | o.o.o.o.o.o.o.o.o.o.o.o.o.o.o.o.o.o.o.o.o.o.Y o.o.w         $ d o.o.o.o.o.o.o.o.o.o.o.o.o.o.o.o.o.o.o.o.4.i.<.< f $.o.o.",
"p ..z = u o.o.o.o.o.o.o.o.o.o.o.o.o.o.o.o.o.o.o.&.&.&.t     O @ i Y     % g o.o.o.o.o.o.o.o.o.o.o.o.o.o.o.o.4.i.<., d $.o.o.{ 0 ",
"....&.+.c = p o.o.o.o.o.o.o.o.o.o.o.o.o.o.o.o.o.&.d     $ @ d &.o.o.o.[     % g o.o.o.o.o.o.o.o.o.o.o.o.4.i.=., g &.o.o.o.o.o.{ ",
"o.g 7 ] o.o.z = p o.o.o.o.o.o.o.o.o.o.o.o.....d     O @ d &.&./ S 4 m o.o.[     % j o.o.G 6 b o.o.o.4.s.=., f &.o.o.o.o.o.o.o.o.",
"o...o.o.o.o.o.+.z = a o.o.o.o.G n o.o.o.o.d     o % d L &.&.&./ o.[ o.o.o.o.o.{     % j o.o.o.o.4.i.;.< d &.o.o.o.o.o.o.o.o.o.o.",
"o.o.o.o.o.o.o.o.o.o.z = a o.o.c m | &.l     O $ u _ &.&.&.W &.&.o.o.o.o.o.o.o.o.o.{     % l 4.s.=., f $.o.o.o.o.o.o.o.o.o.o.o.o.",
"o.o.o.o.o.o.o.o.o.o.o.+.z = g o.&.l     # $ t / &.&.&._ &.W &.W o.o.o.o.o.o.o.o.o.o.o.{     , > d $.o.o.M Y o.o.o.o.o.o.o.o.o.o.",
"o.o.o.o.o.o.o.o.o.o.o.o.o.+.z = &   . # u &.&.&.&./ _ &.&.&.W &.o.o.o.o.o.o.o.o.o.o.o.o.$.{     # r [ ^ g G o.o.o.o.o.o.o.o.o.o.",
"o.o.o.o.o.o.o.o.o.o.o.o.o.o.o.o.l = > &.` &.T r C &./ &.W &.&.&.o.o.o.o.o.o.o.o.o.o.o.o.o.o.o.[     # u o.o.o.o.o.o.o.o.o.o.o.o.",
"o.o.o.o.o.o.o.o.o.o.o.o.o.o.o.o.o.o.l - g &.! H &.&.&.&.E &.&.W o.o.o.o.o.o.o.o.o.o.o.o.o.o.o.o.o.o.t   # i o.o.o.o.o.o.o.o.o.o.",
"o.o.o.o.o.o.o.o.o.o.o.o.o.o.o.o.o.o...&.z - h &.&.&.T &.E &.&.W o.o.o.o.o.o.o.o.o.o.o.o.o.o.o.o.o.o.o.o.t   # i o.o.o.o.o.o.o.o.",
"o.o.o.o.o.o.o.o.o.o.o.o.o.o.o.o.o.o.o.o.| &.l - j &.&.&.&.&.&.&.o.o.o.o.o.o.o.o.o.o.o.o.o.o.o.o.o.o.o.o.o.o.t   # p o.$.o.o.o.o.",
"o.o.o.o.o.o.o.o.o.o.o.o.o.o.o.o.o.o.o.o.....| &.l = d &.&.E E &.o.o.o.o.o.o.o.o.o.o.o.o.o.o.o.o.o.o.o.o.o.o.o.| t   # s o.o.o.o.",
"o.o.o.o.o.o.o.o.o.o.o.o.o.o.o.o.&.&.` &.&.&.| | &.&.d * j &.&.&.o.o.o.o.o.o.o.o.o.o.o.o.o.o.o.o.o.o.o.o.o.o.o.o.o.o.t   $ d o.o.",
"o.o.o.o.o.o.o.o.o.o.o.o.o.o.o.o./ ` &.` | | | &.&.L &.&.l = l &.o.o.o.o.o.o.o.o.o.o.o.o.o.o.o.o.o.o.o.o.o.o.o.o.o.o.o.o.t   $ s ",
"m o.o.o.o.o.o.o.o.o.o.o.o.o.o.o.&.` ` &.` &.| &.&.&.d d &.&.l : c o.o.o.o.o.o.o.o.o.o.o.o.o.o.o.o.o.o.o.o.o.o.o.o.| w s o.o.t   ",
"3 > m o.o.o.o.o.o.o.o.o.o.o.o.o.` &.&.` &.` &.| &.&.M &.&.&.9.i.7 = d R o.o.o.o.o.o.o.o.o.o.o.o.o.o.o.o.o.o.o.o.o.o.E o.o.i     ",
"t ..l < M o.o.o.o.o.o.o.o.o.o.o.&.&./ &.&.&.W W &.E &.&.r.i.z @ p o.N > 6 ! o.o.o.o.o.o.o.o.o.o.o.o.o.o.o.o.o.o.o.o.o.d     @ % ",
"o.&.o.&.l 1 M o.o.o.o.o.o.o.o.o.&./ / &.W &.&.&.&.&.r.y.f @ d &.o.o.o.o.N , 7 { o.o.o.o.o.o.o.o.o.o.o.o.o.o.o.o.o.d     % # e { ",
"E 6 j o.o.o.l 2 C o.o.o.o.o.o.o.&.&.&.&.W &.&.&.r.i.j $ q &.&.&.o.c 6 E o.o.N > 9 ( o.o.o.o.o.o.o.o.o.o.o.o.o.d     o % r { o.o.",
"o.| o.o.o.o.o.&.l 3 C o.o.o.o.Y E / &./ &.&.r.i.k $ t &.&.&.T &.o.o.o.o.o.o.o.o.N > 9 ( o.o.o.L k o.o.o.o.z     + % e { o.o.o.o.",
"o.o.o.o.o.o.o.o.o.&.l 3 C o.U t b &.&.&.7.i.j % u &.&.E &.&.&.T o.o.o.o.o.o.o.o.o.o.N > 9 { +.n m ..+.z     @ % r { o.o.o.o.o.o.",
"o.o.o.o.o.o.o.o.o.o.o.o.l 3 Z &.&.&.r.i.j % r &.&.&.&.E T &.&.&.o.o.o.o.o.o.o.o.o.o.o.o.N > 0 { o.z     . % e { o.o.o.o.o.o.o.o.",
"o.o.o.o.o.o.o.o.o.o.o.o.o.&.l 3 =.i.j $ i &.W &.&.&.E &.&.T &.T o.o.o.o.o.o.o.o.o.o.o.o.o.o.C > #   X % r [ o.o.o.o.o.o.o.o.o.o.",
"o.o.o.o.o.o.o.o.o.o.o.o.o.o.o.o.j - 1 &.&.&.D d E &.&.&.&.&.&.&.o.o.o.o.o.o.o.o.o.o.o.o.o.o.+.+.M : - ! o.o.^ w b o.o.o.o.o.o.o.",
"o.o.o.o.o.o.o.o.o.o.o.o.o.o.o.o.o.o.b = a o.G M o.o.o.o.o.o.o.o.o.o.o.o.o.o.o.o.o.o.o.o.o.o.o.o.o.o.C > r ..| U o.o.o.o.o.o.o.o.",
"o.o.o.o.o.o.o.o.o.o.o.o.o.o.o.o.o.o.o.o.b = a o.o.o.o.o.o.o.o.o.o.o.o.o.o.o.o.o.o.o.o.o.o.o.o.o.o.o.o...M > t o.o.o.o.o.o.o.o.o.",
"o.o.o.o.o.o.o.o.o.o.o.o.o.o.o.o.o.o.o.o.o.o.c : d $.o.o.o.o.o.o.o.o.o.o.o.o.o.o.o.o.o.o.o.o.o.o.o.o.o.o.o.o.C > u o.o.o.o.o.o.o.",
"o.o.o.o.o.o.o.o.o.o.o.o.o.o.o.o.o.o.o.o.o.o.o.o.c ; f o.o.o.o.o.o.o.o.o.o.o.o.o.o.o.o.o.o.o.o.o.o.o.o.o.o.o...o.V : u o.o.o.o.o.",
"o.o.o.o.o.o.o.o.o.o.o.o.o.o.o.o.o.o.o.o.o.o.o.o.| $.c = f $.$.o.o.o.o.o.o.o.o.o.o.o.o.o.o.o.o.o.o.o.o.o.o.o.o.o.o.o.V > i o.o.o.",
"o.o.o.o.o.o.o.o.o.o.o.o.o.o.o.o.o.o.o.o.o.o.o.o.o.o.$.$.x ; g o.o.o.o.o.o.o.o.o.o.o.o.o.o.o.o.o.o.o.o.o.o.o.o.o.o.o.o.o.V > p o.",
"a o.o.o.o.o.o.o.o.o.o.o.o.o.o.o.o.o.o.o.o.o.o.o.o.B 6 B $.$.n 6 k o.o.o.o.o.o.o.o.o.o.o.o.o.o.o.o.o.o.o.o.o.o.o.o.o.p p o.| V , ",
"u ; 9 ^ o.o.o.o.o.o.o.o.o.o.o.o.o.o.o.o.o.o.o.o.o.o.[ o.%.y.d.M = - k o.o.o.o.o.o.o.o.o.o.o.o.o.o.o.o.o.o.o.o.o.o.o.Y o.o.&.0.h.",
"C o.B > 9 E o.o.o.o.o.o.o.o.o.o.o.o.o.o.o.o.o.o.o.o.&.t.h.N * , C +.c : j o.o.o.o.o.o.o.o.o.o.o.o.o.o.o.o.o.o.o.o.o.o.&.8.s.c , ",
"o.o.{ o.N > 9 { o.o.o.o.o.o.o.o.o.o.o.o.o.o.o.o.&.r.f.P = > B o.o.] o.o.c : k +.o.o.o.o.o.o.o.o.o.o.o.o.o.o.o.o.o.o.8.h.c , M o.",
"o.p i o.o.o.N > 9 { o.o.o.o.o.[ o.o.o.o.$.$.$.0.f.) = > B [ $.o.c 8 E o.o.+.c : l o.o.o.o.o.o...o.o.o.o.o.o.o.o.0.f.c < B o.o.o.",
"o.o.o.o.o.o.o.o.C > 9 [ o.o.o.j j | o.o.$.0.d.%.; > B o.#.$.o.o.+.o.o.o.o.o.+.+.c > z o.o.o.o.E E o.o.o.o.&.0.h.x , m o.o.o.o.o.",
"o.o.o.o.o.o.o.o.o.o.V , 0 | o.C ^ $.$.0.f.:.: > B o.o.o.o.o.o.o.o.o.o.o.o.o.o.o.o.+.c > z o._ a c o.o.o.0.f.x , M o.o.o.o.o.o.o.",
"o.o.o.o.o.o.o.o.o.o.o.o.C : e [ $.7.h.,.: : B $.o.o.o.o.o.o.o.o.o.o.o.o.o.o.o.o.o.o.o.+.c > c o.&.o.0.f.x < m o.o.o.o.o.o.o.o.o.",
"o.o.o.o.o.o.o.o.o.o.o.o.o.o.V : f 6.< : M o.#.o.o.o.o.o.o.o.o.o.o.o.o.o.o.o.o.o.o.o.o.o.o.+.c < { s.x > m o.o.o.o.o.o.o.o.o.o.o.",
"o.o.o.o.o.o.o.o.o.o.o.o.o.o.o.#.M : 7 o.o.o.b 5 E o.o.o.o.o.o.o.o.o.o.o.o.o.o.o.o.o.o.o.o.o.o.o.c > 8 ..o.o.a t o.o.o.o.o.o.o.o.",
"o.o.o.o.o.o.o.o.o.o.o.o.o.o.o.o.o.o.B > u | | | o.o.o.o.o.o.o.o.o.o.o.o.o.o.o.o.o.o.o.o.o.o.o.o.{ o.G 1 u | Y | $.o.o.o.o.o.o.o.",
"o.o.o.o.o.o.o.o.o.o.o.o.o.o.o.o.o.o.o.o.N > u o.o.o.o.o.o.o.o.o.o.o.o.o.o.o.o.o.o.o.o.o.o.o.[ o.o.o.o.o.K 1 u o.o.o.o.o.o.o.o.o.",
"o.o.o.o.o.o.o.o.o.o.o.o.o.o.o.o.o.o.o.o.o.o.B > u o.o.o.o.o.o.o.o.o.o.o.o.o.o.o.o.o.o.o.[ o.o.o.o.o.o.o.o.o.D 1 a o.o.o.o.o.o.o.",
"o.o.o.o.o.o.o.o.o.o.o.o.o.o.o.o.o.o.o.o.o.o.o.o.N > p o.o.o.o.o.o.o.o.o.o.o.o.o.o.o.| o.o.o.o.o.o.o.o.o.o.o.o.o.K 2 a o.o.o.o.o.",
"o.o.o.o.o.o.o.o.o.o.o.o.o.o.o.o.o.o.o.o.o.o.o.o.o.o.N , p o.o.o.o.o.o.o.o.o.o.o.o.o.o.o.o.o.o.o.o.o.o.o.o.o.o.o.o.o.K 2 a o.o.o.",
"o.o.o.o.o.o.o.o.o.o.o.o.o.o.o.o.o.o.o.o.o.o.o.o.o.o.&.o.C , a o.o.o.o.o.o.o.| o.o.o.o.o.o.o.o.o.o.o.o.o.o.o.o.o.o.o.o.o.D 2 a $.",
"c o.o.o.o.o.o.o.o.o.o.o.o.o.o.o.o.o.o.o.o.o.o.o.o.G 7 b o.o.B 1 a o.o.o.{ o.o.o.o.o.o.o.o.o.o.o.o.o.o.o.o.o.o.o.o.K 7 c $.%.Y s ",
"b = k o.o.o.o.o.o.o.o.o.o.o.o.o.o.o.o.o.o.o.o.o.o.o.{ o.o.2.i.4.: > 1 n o.o.o.o.o.o.o.o.o.o.o.o.o.o.o.o.o.o.o.o.o.o.#.$.&.y.d.v ",
"    # 4 n +.o.o.o.o.o.o.o.o.o.o.o.o.o.o.o.o.o.o.o.o.o.4.s.6.1 > m o.{ 9 : m o.o.o.o.o.o.o.o.o.o.o.o.o.o.o.o.o.$.o.o.&.y.d.n % 1 ",
"% < C o...c n o.o.o.o.o.o.o.o.o.o.o.o.o.o.o.o.o.o.<.i.4.1 : M o.o.o.G o.{ 0 : B o.$.o.o.o.o.o.o.o.o.o.o.o.o.o.$.&.r.d.B * 1 K #.",
"Z o.+.G M +.o.b n o.o.o.o.o.o.o.o.o.o.o.o.o.o.3.i.4.< , m o.o.o.o.j d o.o.o.{ 9 : N o.o.o.o.o.o.o.o.o.o.o.o.$.w.f.P * < A | $.[ ",
"o.o...j m +.o.o.o.b n +.o.....n ( o.o.o.o.3.u.6.< : m o.o.o.o.o.o.o.o.o.o.o.o.o.{ 0 : B o.o.o.g r o.o.o.&.0.f.) = < A $.$.$.| $.",
"o.o.o.o.o.o.o.o.o.o.] n M ..G j { o.o.3.u.6.< : B o.o.o.o.o.o.o.o.o.o.o.o.o.o.o.o.o.{ 0 > A o.R | o.$.0.f.#.= 1 A o.o.o.#.o.o.o.",
"o.o.o.o.o.o.o.o.o.o.o.o.o.n M o.o.3.s.6.< > M o.o.o.o.o.o.o.o.o.o.o.o.o.o.o.o.o.o.o.o.o.{ 0 , A $.0.d.%.: < A o.o.o.o.o.o.o.o.o.",
"o.o.o.o.o.o.o.o.o.o.o.o.o.o.+.m 8.6.< : B o.| o.o.o.o.o.o.o.o.o.o.o.o.o.o.o.o.o.o.o.o.o.o.o.{ 9 3 %.: < A o.o.o.o.o.o.o.o.o.o.o.",
"o.o.o.o.o.o.o.o.o.o.o.o.o.o.o.o.o.l 4 E o.o.j 9 o.o.o.o.o.o.o.o.o.o.o.o.o.o.o.o.o.o.o.o.o.o.#.$.' 9 : P o.o.m 4 D o.o.o.o.o.o.o."
};
