/* XPM */
static char *_2395362efaa4688b397884ac4bf9e04qne8Ex21sAcVd8cb[] = {
/* columns rows colors chars-per-pixel */
"64 64 253 2 ",
"   c #21241D",
".  c #171F2A",
"X  c #192629",
"o  c #0B362C",
"O  c #173628",
"+  c #092A36",
"@  c #182B36",
"#  c #02353C",
"$  c #0B353D",
"%  c #043A3E",
"&  c #0D3A3D",
"*  c #083734",
"=  c #13353B",
"-  c #1B333B",
";  c #183837",
":  c #052F2D",
">  c #272B29",
",  c #24362B",
"<  c #252C31",
"1  c #233836",
"2  c #353538",
"3  c #1F1C17",
"4  c #423C2E",
"5  c #0B413E",
"6  c #2D4537",
"7  c #42473D",
"8  c #033642",
"9  c #033B45",
"0  c #0B3B43",
"q  c #013C4B",
"w  c #0B3C49",
"e  c #053648",
"r  c #133847",
"t  c #023D53",
"y  c #003B59",
"u  c #1C2B40",
"i  c #243C48",
"p  c #024143",
"a  c #02414C",
"s  c #0A424B",
"d  c #0A4445",
"f  c #15424B",
"g  c #004254",
"h  c #004459",
"j  c #074B58",
"k  c #1A4958",
"l  c #06515B",
"z  c #17515B",
"x  c #29474D",
"c  c #2A4C5B",
"v  c #29515D",
"b  c #25525D",
"n  c #3A585B",
"m  c #2F5053",
"M  c #074B64",
"N  c #085369",
"B  c #195666",
"V  c #085776",
"C  c #155C72",
"Z  c #114D66",
"A  c #265667",
"S  c #2A5D77",
"D  c #375E68",
"F  c #0E627D",
"G  c #04627C",
"H  c #1C6A7C",
"J  c #17647A",
"K  c #19616A",
"L  c #26656C",
"P  c #396466",
"I  c #236B7D",
"U  c #276878",
"Y  c #386C77",
"T  c #2D717A",
"R  c #337170",
"E  c #34605F",
"W  c #474A48",
"Q  c #465859",
"!  c #585D57",
"~  c #52534E",
"^  c #775C4C",
"/  c #725D55",
"(  c #586259",
")  c #706955",
"_  c #4F5C68",
"`  c #715F6A",
"'  c #44696A",
"]  c #5A6968",
"[  c #57716B",
"{  c #486D77",
"}  c #546B73",
"|  c #5C6A74",
" . c #4B747B",
".. c #56747A",
"X. c #66676B",
"o. c #686B70",
"O. c #8D613E",
"+. c #835E50",
"@. c #8D6F56",
"#. c #6F8167",
"$. c #9C9269",
"%. c #9C9073",
"&. c #AD936D",
"*. c #B6AB7A",
"=. c #B6A46C",
"-. c #F5BC77",
";. c #EFBC73",
":. c #CFA56B",
">. c #EDC17B",
",. c #FAC374",
"<. c #F4C37B",
"1. c #FBC37B",
"2. c #F4C374",
"3. c #F6C26B",
"4. c #0D6B8C",
"5. c #0D6785",
"6. c #126582",
"7. c #116A86",
"8. c #1B6B83",
"9. c #126C8B",
"0. c #1D6E8B",
"q. c #1D6780",
"w. c #14728C",
"e. c #1C738D",
"r. c #1D7186",
"t. c #136E91",
"y. c #1C6E92",
"u. c #0F7191",
"i. c #157495",
"p. c #1B7495",
"a. c #1C7994",
"s. c #167599",
"d. c #1B7699",
"f. c #177899",
"g. c #1C7A9B",
"h. c #177996",
"j. c #0E708F",
"k. c #236C84",
"l. c #2B6C83",
"z. c #226E8D",
"x. c #2A6F8A",
"c. c #286581",
"v. c #336D86",
"b. c #247285",
"n. c #23728D",
"m. c #2A728B",
"M. c #297587",
"N. c #36768C",
"B. c #237494",
"V. c #2A7594",
"C. c #257996",
"Z. c #2A7996",
"A. c #237699",
"S. c #2A7699",
"D. c #257A9B",
"F. c #29799A",
"G. c #2B7A9B",
"H. c #347594",
"J. c #337A96",
"K. c #3C7B93",
"L. c #337C9B",
"P. c #3A7D9C",
"I. c #3A7694",
"U. c #246D92",
"Y. c #1C7AA3",
"T. c #247CA1",
"R. c #2C7DA1",
"E. c #357EA1",
"W. c #587D87",
"Q. c #437C96",
"!. c #477686",
"~. c #627D8C",
"^. c #2C819D",
"/. c #37819D",
"(. c #1F82A2",
"). c #2482A4",
"_. c #2C83A4",
"`. c #2C86A9",
"'. c #2C8AAB",
"]. c #2C89A7",
"[. c #3384A4",
"{. c #3B86A6",
"}. c #3386A9",
"|. c #348BAC",
" X c #3C8CAC",
".X c #3988A6",
"XX c #3A92AD",
"oX c #3B8FB1",
"OX c #3D91B1",
"+X c #3292B3",
"@X c #2E8FB0",
"#X c #57818C",
"$X c #43849B",
"%X c #598799",
"&X c #648695",
"*X c #708B90",
"=X c #438DAB",
"-X c #4689A6",
";X c #4A92AD",
":X c #428BB1",
">X c #4B93B2",
",X c #4595B2",
"<X c #5592AE",
"1X c #739DAF",
"2X c #45AAC8",
"3X c #57ADC6",
"4X c #7BB5C1",
"5X c #8A928A",
"6X c #97A698",
"7X c #8AA19B",
"8X c #ADAC8B",
"9X c #899BA4",
"0X c #8BA6A8",
"qX c #93A9AC",
"wX c #94A7A8",
"eX c #95ADB6",
"rX c #A8A8A6",
"tX c #B7B7AE",
"yX c #B5BBB4",
"uX c #BBBCB5",
"iX c #B5BDB9",
"pX c #BBBDBA",
"aX c #B6B7B4",
"sX c #AFBCB5",
"dX c #BE9C81",
"fX c #CEA982",
"gX c #EABA86",
"hX c #F6BF86",
"jX c #C2BBB6",
"kX c #BCC1B5",
"lX c #BCC2BB",
"zX c #B5C1B8",
"xX c #B8C099",
"cX c #D4C997",
"vX c #E8C485",
"bX c #F4C38A",
"nX c #F9C686",
"mX c #E8C695",
"MX c #F1C893",
"NX c #C6C6B8",
"BX c #C4C8AD",
"VX c #A6B5C2",
"CX c #B9C3C3",
"ZX c #B3CED8",
"AX c #B4DAEB",
"SX c #B4D8EC",
"DX c #D8DCD3",
"FX c #CED4CE",
"GX c #D9E1D6",
"HX c #C6ECEB",
"JX c #CAF5F7",
"KX c #D4F0F0",
"LX c #E8EAE9",
/* pixels */
"p.p.p.D.F.F.V.F.V.V.B.A.Z.a.e.e.y.s.t.y.g.d.D.C.C.C.C.B.S.V.V.V.g.i.0.n.b.b.b.k.b.n.r.b.b.M.w.p.e.e.i.w.d.i.i.i.p.e.C.Z.Z.A.S.V.",
"9.9.7.p.p.p.z.z.n.B.z.B.B.B.0.5.t.t.t.t.t.9.B.p.e.e.r.z.n.U.V.G.t.V M y q g g h h h h g h h M V 5.p.i.9.t.t.t.i.9.9.e.B.n.n.n.z.",
"g.d.a.D.G.G.G.G.G.V.A.B.F.T.a.7.t.g.d.s.p.a.G.D.Z.Z.F.G.^.S.V.G.U.V t e 9 q q q q q q q q e y q.F a.p.4.t.s.s.i.p.p.C.F.F.F.F.F.",
"'.'.'.|.XXOX:X X:X=X{.G.F.D.y.5.T.'.'.|.|.|.OXoX XXX X X:XR.p.S.z.N e e 0 9 9 9 # q e 9 w 8 e k.V p.a.i.d.@X@X@X}.}. X XXX.XOX X",
"h.h.p.g.C.D.S.F.R.S.E.S.F.T.A.y.i.g.d.p.p.B.F.F.Z.C.A.S. XG.S.G.M.N q 9 5 & 0 0 0 0 0 0 0 9 e H 6.S.p.4.i.`.g.t.p.a.D.G.Z.S.D.G.",
"h.e.p.C.D.F.F.L.S.S. XS.A.A.p.5.g.g.s.p.y.0.D.F.G.L.G.F.oXD.p.B.e.N q 9 % % $ 0 0 0 8 % % q p J 6.A.p.4.d.@Xg.d.p.p.B.F.F.F.G.D.",
"e.e.p.B.C.Z.G.Z.L.U.{.F.G.A.A.t.i.p.p.p.B.B.Z.L.V.J.G.V.oXS.p.D.r.N t 9 9 0 9 0 w 8 9 0 9 q q H F a.p.9.s.`.i.D.p.B.S.S.S.G.G.S.",
" X X X=X,X;X>X>X:XL.{.A.F.A.A.5.d.D.[.OX,X X;X>X>X>X;XE.=XA.p.S.V.N q 8 0 0 0 w w # d w 8 9 q I F w.p.4.i.'.d.|. X X=X;X>X;X;X-X",
"V.V.V.S.J.L.L.L.H.S. XZ.Z.C.a.7.p.B.C.C.V.V.J.P.L.L.J.L. XC.^.n.n.Z w 0 D eX..i c 9XSXk D e q H H H a.j.w.'.a.p.F.S.S.I.P.P.I.H.",
"m.V.m.m.V.H.I.H.P.V.{.^.^.F.a.9.p.a.a.n.B.m.V.I.H.J.J.M. XF..X^.z.N 1XSXSXAXeXSXSXSXSXSXSXw q q.XX(.h.7.h.].w.D.n.m.m.H.I.J.H.H.",
"=X=X=X=X-X;X<X>X-XZ.{.^.^.(.e.7.a.F.[..X=X=X;X;X<X>X;X/.=XZ.[.B.T.V M I.<XY v.S <XQ.C Q.v.y h J XX(.w.w.h._.a.,X X=X-X<X<X<X;XQ.",
"G.J.L.J.P.{.$X/.-XV.{./.^.^.e.7.p.a.D.G.^./.L./.P././.m.=X/..XF.y.5.H.c.l.T c.v.v.c.l.l.U x.z.Z.^.(.h.7.a.].w.C.^.L.L./.P.P.P.P.",
"0.e.0.z.z.V.V.V.J.n.[.Z.^.^.e.7.D.g.y.0.0.0.n.Z.V.J.V.Z..XZ.n.n.B.N q 8 q 9 0 8 w w 9 9 s 9 j F F H w.G i.|.g.p.0.0.b.m.E.H.H.S.",
"p.p.p.p.B.S.S.G.S.V.{.C.n.C.a.4.p.p.s.y.p.n.B.Z.V.Z.n.Z. X^.B.^.r.M q d % % # 0 8 f % % # 9 a H G (.(.w.i.).h.p.p.p.B.B.S.S.L.S.",
"i.i.p.p.p.S.G.Z.G.S. XS.C.D.B.5.p.g.d.d.A.p.e.B.G.^.Z.G. XF.e.Z.B.N g # % d 9 9 e 9 s # s 9 a J 6.w.w.4.g.'.d.i.a.B.B.B.S.F.F.F.",
"i.i.h.p.a.D.F.Z.G.S.{.A.F.C.B.7.s.s.s.i.p.p.a.D.C.D.F.Z. XF.p.Z.e.N e q a # d e e q q % e e q 8.F h.^.7.i.'.i.p.i.p.p.d.A.F.F.T.",
"f.i.i.i.d.D.D.F.G.S.{.V.S.A.B.7.d.g.p.i.p.p.s.B.D.D.G.D. XF.B.Z.0.H U B K K K L A U K L B K K r.6.p.p.7.i.'.h.i.g.i.p.A.D.F.G.G.",
"d.s.p.i.d.A.D.F.F.S.{.V.V.C.B.7.i.g.i.i.s.p.d.d.G.T.T.G. XF.B.Z.B.N q q p s # d w k d % d a g w.6.p.p.9.i.'.f.i.d.i.d.A.D.F.S.L.",
"d.d.s.i.p.A.D.F.G.S.{.V.Z.A.B.7.p.f.i.i.p.s.p.A.D.D.G.D. XF.n.C.w.N q w d : m n @ [ x o o d 5 H 6.p.B.9.i.'.f.f.s.i.p.A.T.S.S.S.",
"s.s.p.s.d.A.D.G.F.S.{.V.Z.C.n.7.p.g.g.i.p.p.p.d.T.D.G.F.=XF.B.Z.h.M 0 ; 1 6 ) ) 4 5X6 6 6 O 5 L J p.p.9.i.'.f.i.p.i.p.d.S.R.S.L.",
"s.s.i.s.p.A.A.G.G.S.{.V.V.C.B.7.i.g.s.i.d.s.p.p.T.A.G.F. XF.B.Z.B.Z i ( ) &.mXfX&.$.$.=.cXxX6 L J p.p.9.d.'.f.i.p.s.p.s.A.F.R.S.",
"d.s.d.p.p.a.A.G.G.S.{.V.F.C.p.7.p.g.p.i.d.d.p.p.D.A.T.F. XZ.n.H.B.k o.) @.gXMXbXnX:.:.bX>.cX6XR J e.B.7.i.`.f.s.s.i.p.p.A.A.G.S.",
"s.s.d.i.p.d.D.G.F.S.{.V.Z.C.n.7.i.g.i.i.d.p.y.s.T.D.F.D. XZ.B.S.U.A o./ =.hX1.;.-.vXnX-.nXMXBXn C p.p.9.p.'.d.i.i.i.i.p.S.T.G.S.",
"d.s.d.s.p.d.A.G.F.V.{.A.Z.A.p.7.h.h.s.i.d.s.p.p.D.D.G.F. XZ.n.G.U.S X.^ fXbX2.,.<.nX<.<.,.vXBX' U e.p.9.i.'.f.i.i.s.p.p.d.A.F.S.",
"s.s.i.i.p.p.d.D.S.L.[.V.F.C.n.7.h.i.(.i.d.i.p.d.B.A.R.D. XZ.n.Z.U.A X.^ fXhX-.2.<.>.<.1.2.bXBX' C a.9.9.g.).f.u.s.i.p.p.d.D.D.D.",
"'.@X'.'.'.}. XoX X:X.XF.C.B.a.w.g.).'.).+X'.`.`.|.OXOX|.,XL.B.Z.v.S ] ^ fXMX<.,.1.nX<.-.1.vXBXP J a.D.9.h.'.@X+X'.'.'.'.|.OX XOX",
"d.s.d.s.p.p.A.F.R.G.L.B.C.C.B.7.4.(.u.i.s.d.p.p.p.G.D.D.L.B.n.Z.x.A ] ) dXgX-.-.-.-.-.1.;.<.NXP I 7.a.4.u.g.f.u.f.f.i.p.p.D.G.D.",
"s.s.i.i.p.p.a.D.A.V.G.B.F.C.e.5.h.2Xf.i.i.s.p.p.p.T.D.G.G.Z.V.Z.U.B X ! ^ O.nX,.nX-.-.hX,.=.O R >XB.h.j.g.'.g.f.f.i.i.p.p.D.F.D.",
"s.s.s.d.p.p.a.F.G.G.G.B.Z.C.p.7.(.2Xf.f.f.f.p.i.p.T.D.G.A.Z.n.B.y.M u | / +.hX-.;.nXhXbX<.*.o I 3Xa.i.5.f.'.(.f.i.d.p.i.p.D.D.D.",
"s.i.i.i.i.p.B.A.F.S.V.B.Z.C.B.w.h.2Xu.h.s.f.p.i.p.S.D.G.Z.G.V.Z.0.C e | X.+.bX1.1.<.nXhXvX*.& H XXh.(.4.h.@Xf.u.i.s.i.p.p.B.D.D.",
"f.s.i.g.p.p.a.D.G.G.L.V.G.C.e.7.h.2Xh.h.i.f.p.d.A.A.S.G.F.F.V.V.x.Z r _ ` @.hX,.,.1.;.nXnX=.5 H ^.w.h.4.u.@X(.f.f.s.p.p.p.D.F.F.",
"s.s.s.i.i.p.a.D.G.F.F.A.F.B.a.9.u.2Xh.i.s.f.i.p.d.p.d.F.Z.V.V.V.x.Z r | ` ^ nX-.3.,.-.nX>.*.5 J ^.h.w.4.h.@Xh.i.i.s.p.i.p.B.D.F.",
"i.g.d.s.p.p.p.d.D.S.G.B.C.C.B.5.i.+Xg.i.d.s.i.d.p.D.D.G.V.G.B.Z.B.Z r _ ` @.gXhX3.3.1.nX-.=.; k.8.w.p.4.i.+X'.u.i.s.d.p.d.A.A.T.",
"p.p.i.p.t.s.p.A.D.D.R.V.C.C.B.9.g.+XY.d.d.i.i.i.t.g.D.G.G.S.m.V.e.l r ] +.+.MXnX2.2.nXhXnX8X& H 0.p.a.w.p.+X'.(.i.i.p.p.p.p.A.G.",
").).).).).T._._.|.[..XF.D.C.n.7.h.'.g.).).).).)._.`.|.}. XL.V.V.b.l & ] ` +.mXvXvXvXMXgXmX8X5 H 8.p.p.5.i.'.).(.(.).).).R._.}.}.",
"i.s.i.s.i.p.a.d.G.T.[.D.C.C.B.7.i.g.i.d.i.i.i.s.p.p.D.G..XA.B.V.b.l & n _ ~ %.%.$.%.&.$.$.#.* H F p.p.9.i.'.f.f.i.f.s.s.d.d.A.T.",
"i.i.i.i.i.p.p.p.D.G.[.S.C.D.B.9.d.g.s.g.i.i.i.i.t.p.A.D.=XF.V.L.A.Z e w r + 5 O o O O O 1 ; e 0.F p.p.9.g.].u.i.f.i.s.i.s.p.d.T.",
"d.s.h.s.i.h.f.d.T.R.}.G.C.C.e.7.i.i.i.s.i.s.i.g.g.A.D.D. XA.0.V.z.Z t 8 e t % 5 d 5 % % 0 8 h 8.F p.h.9.p.].s.f.f.i.i.g.d.p.g.D.",
"f.i.i.i.i.i.s.p.a.A.[.A.B.C.B.9.g.(.i.i.i.d.i.d.p.d.A.D.OXG.B.G.V.Z q % 9 0 # w 8 % $ 0 w q g J 6.p.a.9.p.'.d.i.f.i.i.d.i.i.d.D.",
"f.f.i.s.h.s.p.p.A.G..XS.B.C.B.7.i.f.u.i.i.g.i.s.y.d.a.D..XG.n.V.n.M a p 5 9 q w 0 0 a 8 t q g H F p.B.9.i.'.g.i.f.i.i.i.p.i.d.T.",
"i.i.i.s.i.i.p.p.B.D. XD.D.A.p.7.g.h.s.s.g.p.s.i.y.s.A.D.|.F.B.D.S.0.U T T U T T T U T l.c.v.k.M.F p.d.9.p.'.d.s.s.i.i.s.i.h.p.D.",
"s.i.i.s.i.i.i.p.d.A.{.S.C.C.B.7.s.i.i.i.i.i.p.d.p.A.B.A. XC.B.G.y.V t q p p g g a q a g y y g C F B.d.7.p.`.d.t.i.i.i.s.p.i.d.g.",
"i.d.s.p.i.p.p.d.A.A.}.B.C.C.B.7.g.g.g.p.s.s.d.d.p.p.p.S.OXZ.B.G.g.V t 9 p p a e q 9 p a q q a I J a.d.9.i.`.g.s.d.p.g.d.s.p.d.D.",
"p.i.p.i.p.p.p.p.A.D..XS.C.C.p.7.p.s.i.i.p.p.p.p.d.y.A.A.OXZ.n.D.p.N q q 5 % 9 9 & 9 % p q q q I J p.a.9.p.`.d.s.i.s.i.p.p.i.p.p.",
"A.A.d.d.d.s.p.B.B.S. XS.C.B.B.7.p.s.p.d.s.g.p.A.p.p.A.F.=XC.n.C.p.N q 0 % % 0 0 & 0 % % w s q K 6.p.p.9.p.}.d.p.p.Y.d.d.p.A.p.A.",
"y.y.y.p.p.p.p.y.p.B.}.S.C.C.p.9.A.Y.d.d.p.y.d.p.y.y.A.y. XC.B.^.e.N e 0 & % 9 8 $ & 0 % 9 e e H 6.p.a.7.p.`.s.p.p.y.d.p.y.p.A.p.",
"s.y.p.p.p.s.p.A.D.D.{.A.Z.C.p.7.p.g.d.d.d.Y.A.y.A.A.A.B. XD.B.C.w.l p r 0 w 9 8 0 0 q 9 % q q k.F p.p.9.p.`.Y.Y.y.d.d.p.A.A.p.p.",
"E.}.}.}.[.[.E.}.^.D..XC.F.F.A.5.p.A.T.R.}.}.}.E.[.}.L.S. XF.M.C.r.N a 0 e 9 q d q 8 9 w 9 p a H F p.d.9.p.R.T.`.E.}.}.[.}.}.R.R.",
"p.0.y.U.z.x.z.z.p.e./.^.^.F.B.7.a.w.e.n.r.n.z.z.z.z.0.z.=XZ..XC.r.l a 0 0 9 p * % 9 9 0 9 q q H ^.w.h.4.p. Xi.p.y.e.b.0.z.z.e.e.",
"E.R.[.{.P.Q.I.K./.M.$XN./.N.l.H b.M.N./.K.Q.K.!.Q.I./.v.-XJ.-XN.T z d 5 0 & & = 5 = $ & $ 0 a L ;X^.n.8.k.G.p.[.[.L.L.J.P.E.^.C.",
" X{. X-XQ.&X&X&X~.W.&X&X*X#XW. .W.#X#X&X&X&X&X&X&X&X&XW.&X#X&X~.#.Y n n Q Q Q Q Q Q Q ( Q n ' [ *X..W.W.W.%XN.-X-X-X-X-X:X:X|._.",
"U.S.S.U.v.!.W.| X.X.] [ | } [ [ ..{ } } } } } } } } [ } } } W.} } } [ ( [ ] X.X.X.X.] X.] ] o.o.[ ] ] ..{ !.l.k.l.m.m.B.S.A.p.y.",
"S.S.L.H.U w = O > > 1 @ @ - ; ; ; - - - - - - - @ ; @ - - - 1 < @ < , O , O < > < < < , O > > > 6 , > X * B k.J.m.S.S.Y.T.T.T.Y.",
"V.U.U.x.l.B b O > < n A v v b k b v A v v c c A c A v c D v c c m x 6 O 1 ; i i 1 1 1 1 , 1 ; m 6 O > i A l.U.y.r.y.d.s.y.y.p.y.",
"B.z.0.0.B.M.R o > < Q.m.I.v.M.J x.m.x.x.x.x.x.k.m.l.m.k.$XN.v.I.x.Z 8 0 = $ # q 0 r ; * $ f e U b = . @ v.}.Y.s.p.i.s.s.s.p.p.p.",
"y.y.A.y.p.I L : . @ Q.V.H.S.C.7.a.p.B.p.y.p.y.p.p.p.e.p..XG.U.L.y.N g  ...W. .W...........{ y c.k @ X @ m.'.Y.s.i.h.s.s.Y.p.p.0.",
"(.h.T.T.g.M.N.: < . v.L.U.L.p.5.t.T.T.d.T.T.T.g.T.g.T.A.R.T.A.S.S.M k CXCXjXlXlXkXkXNXBXCX9Xt c.v X > @ l.d.T.Y.g.(.Y.Y.(.Y.D.C.",
"h.s.i.i.p.M.R + u u v.U.L.S.w.4.g.s.s.g.s.d.i.g.s.d.s.i.A.A.A.R.B.Z 8 FXDXGXGXDXGXFXGXGXHXZXt S k + . @ U D.T.i.w.w.i.i.Y.t.p.p.",
"4.u.u.4.i.0.K 8 + + c.S.V.V.e.G 5.i.4.4.t.4.4.u.4.u.u.u.t.p.A.D.p.F j JXJXHXHXJXHXJXKXKXJX4Xg H z = + - c.0.9.4.w.w.j.j.u.9.9.w.",
"k.B.x.l.v.U Y : @ u v.c.v.Q.l.M.V.q.z.U.z.x.z.k.H n.k.k.x.v.v.N.c.v.L P P ' { P P P ' P P Y L Y D + X - Y I m.m.I I b.M.x.x.T I ",
"qXqXqXqXwX7XwX> > X qX*X*XeX9X~.9XeXeXeXCXeXx x 9X0XqX0XwXqXqXwXwX7XeX6X6XwX7XqXwXwX7XQ 6 5XwXwX*X3 > 2 ZXeX- x 0X0X0XwXqXqX0X0X",
"pXuXpXVXjXjXtX3 3 X lXaXpXrXwXaXiXFXLXFX~ W rXuXaXyXiXiXuXpXpXpXkXuXkXuXlXzXlXzXaXCXyXlXtX! 7 rX5X> > 2 7 W wXCXsXyXkXuXaXpXCXzX",
"iXiXiXpXjXjXtX! ~ ! yXtXpXpXaX6XFXFXW W rXaXuXuXpXkXpXuXyXuXtXuXuXkXiXiXaXuXpXpXjXuXlXiXpXuXCX( W ! 3 2 rXjXiXsXtXuXjXuXpXpXiXiX",
"zXzXiXiXtXjXjXuXzXzXtXjXpXpXjXaXyX5XW aXaXjX5X! uXzXtXkXkXkXuXuXlXyXpXpXjXtXuXjXjXjXpXaXlXiXiXaXaX! W rXuXuX6X( rXtXuXtXjXpXlXsX"
};
