/* XPM */
static char *fbc7a509466741a5e472e6d357ec2e65EgfKOSajLF6jwO9H[] = {
/* columns rows colors chars-per-pixel */
"64 64 191 2 ",
"   c None",
".  c #010101",
"X  c #0B0906",
"o  c #0C0C0B",
"O  c #0A0706",
"+  c #110D0A",
"@  c #100B07",
"#  c #0F100E",
"$  c #12110E",
"%  c #1C130D",
"&  c #141513",
"*  c #1C1D1A",
"=  c #191916",
"-  c #2A1C13",
";  c #271C15",
":  c #24160F",
">  c #1F201E",
",  c #22231E",
"<  c #292118",
"1  c #37261B",
"2  c #1E2323",
"3  c #222321",
"4  c #272823",
"5  c #2A2B25",
"6  c #262C2C",
"7  c #2B2D2B",
"8  c #2F2721",
"9  c #342C25",
"0  c #2E302A",
"q  c #33342D",
"w  c #3C322B",
"e  c #2A2F30",
"r  c #2C3132",
"t  c #333533",
"y  c #373833",
"u  c #3B3C35",
"i  c #353B3C",
"p  c #3B3D3C",
"a  c #313738",
"s  c #422E1F",
"d  c #4A3627",
"f  c #59392B",
"g  c #5D3F33",
"h  c #463630",
"j  c #3E4037",
"k  c #3F413A",
"l  c #5E422C",
"z  c #43453C",
"x  c #5D4637",
"c  c #64432D",
"v  c #6A4A34",
"b  c #734A34",
"n  c #735035",
"m  c #7C543A",
"M  c #765239",
"N  c #6A503A",
"B  c #3A3F41",
"V  c #3D4343",
"C  c #414646",
"Z  c #4C4E44",
"A  c #44494A",
"S  c #4A4E4C",
"D  c #454846",
"F  c #524D4A",
"G  c #4A504F",
"H  c #56554C",
"J  c #4C5151",
"K  c #535553",
"L  c #575854",
"P  c #5B5D5B",
"I  c #575A58",
"U  c #644C41",
"Y  c #6C5646",
"T  c #745948",
"R  c #6D5D51",
"E  c #705F50",
"W  c #5D605D",
"Q  c #726253",
"!  c #74675B",
"~  c #61635F",
"^  c #5E6261",
"/  c #626563",
"(  c #666B69",
")  c #6A6E6B",
"_  c #686966",
"`  c #766C64",
"'  c #6E716D",
"]  c #78736C",
"[  c #6E7370",
"{  c #737573",
"}  c #757A76",
"|  c #7A7D7A",
" . c #7A7B76",
".. c #81563B",
"X. c #8B5A3E",
"o. c #86583D",
"O. c #845C42",
"+. c #8B5B42",
"@. c #965E43",
"#. c #88624A",
"$. c #9A6347",
"%. c #87675A",
"&. c #996A51",
"*. c #A26447",
"=. c #A56648",
"-. c #AC6A4C",
";. c #A5694C",
":. c #AA6D51",
">. c #A8755B",
",. c #B37256",
"<. c #B4775B",
"1. c #B6795F",
"2. c #B97A5C",
"3. c #B06F52",
"4. c #877368",
"5. c #977667",
"6. c #867C73",
"7. c #AA7C66",
"8. c #B37B61",
"9. c #B97D63",
"0. c #7D817C",
"q. c #82827C",
"w. c #B3836A",
"e. c #BD856C",
"r. c #BC8167",
"t. c #BB8A73",
"y. c #B78872",
"u. c #C28C74",
"i. c #C98F75",
"p. c #C6927C",
"a. c #CA947D",
"s. c #CC9277",
"d. c #D99D7D",
"f. c #C2876D",
"g. c #7F8381",
"h. c #828582",
"j. c #868985",
"k. c #8A8A85",
"l. c #8A8D8A",
"z. c #948E89",
"x. c #8E928D",
"c. c #91948E",
"v. c #9F938A",
"b. c #8F9292",
"n. c #939692",
"m. c #969994",
"M. c #999C96",
"N. c #9B9E9A",
"B. c #B9998B",
"V. c #9EA19C",
"C. c #A1A49E",
"Z. c #A4A6A2",
"A. c #A6A9A3",
"S. c #A9ACA6",
"D. c #ACAFA9",
"F. c #AEB1AB",
"G. c #B2B4AE",
"H. c #B4B6B1",
"J. c #B6B9B2",
"K. c #BABDB6",
"L. c #BBBDBA",
"P. c #B8B7B5",
"I. c #CE9981",
"U. c #CC9780",
"Y. c #D39D84",
"T. c #DB9F81",
"R. c #CEA28C",
"E. c #DCA282",
"W. c #DDA58A",
"Q. c #DFA88D",
"!. c #E3AB8F",
"~. c #E3A788",
"^. c #E7AE91",
"/. c #ECB394",
"(. c #F4BB9A",
"). c #F9BE9D",
"_. c #F1B797",
"`. c #C2BAB7",
"'. c #BEC1BB",
"]. c #FCC19F",
"[. c #E0C5BA",
"{. c #C4C5C4",
"}. c #C6C8C7",
"|. c #C9CBC6",
" X c #CBCDC9",
".X c #D9DAD6",
"XX c #D9DAD7",
"oX c #DFE0DC",
"OX c #E0E1DE",
"+X c #EEEEEC",
"@X c #E4E5E2",
/* pixels */
"K.K.K.K.K.K.K.K.K.K.K.K.K.K.K.K.K.J.    6 [ K.K.K.K.K.K.K.K.K.K.K.K.K.K.K.K.K.K.K.K.K.K.K.K.K.K.K.K.K.D.G ^ K.K.K.K.K.K.K.K.K.K.",
"K.K.K.K.K.K.K.K.K.K.K.K.K.K.K.K.K.K.K.J.    e { K.K.K.K.K.K.K.K.K.K.K.K.K.K.K.K.K.K.K.K.K.K.K.K.K.K.K.K.K.D.J ^ J.K.K.K.K.K.K.K.",
"K.K.K.K.K.K.K.K.K.K.K.K.J.K.K.K.K.K.K.K.K.K.    6 } K.K.J.G.& & & & & A J.K.K.K.K.K.K.K.K.K.K.K.K.K.K.K.K.K.K.F.J ( K.K.K.K.K.K.",
"K.K.K.K.K.K.K.K.K.K.J.K.K.K.K.K.K.K.K.K.K.K.K.J.    6 A . . . . . . . . . _ J.K.K.K.K.K.K.K.K.K.K.K.K.K.K.K.K.K.K.D.S ( K.K.K.K.",
"K.K.K.K.K.K.K.K.J.K.K.K.K.K.K.K.K.K.K.K.K.K.K.K.K.J.q . . . . . . . . . . . = H.K.K.K.K.K.K.K.K.K.K.K.K.K.K.K.K.M.G.K.F.S ) J.K.",
"K.K.K.K.K.K.K.K.K.K.K.K.K.K.K.K.K.K.K.K.K.K.K.K.K.K.. . . . . . . . . . . . . 7 K.K.K.K.K.K.K.K.K.K.K.K.K.K.K.F.l.G.K.K.|.XXV ) ",
"( J.K.K.K.K.K.K.K.K.K.K.K.K.K.K.K.K.K.K.K.K.K.K.K.p . . . . . . . . . . . . . . K.K.K.K.K.K.K.K.K.K.K.K.K.K.K.K.K.K.|.+X}.A g.F.",
") r | K.K.K.K.K.K.K.K.K.K.K.K.K.K.K.K.K.K.K.K.K.K.p . . . . . . . . . . . . . . K.K.K.K.K.K.K.K.K.K.K.K.K.K.K.K.|.+X}.A g.K.K.'.",
"} J.b.i [ K.K.K.K.K.K.K.K.K.K.K.K.K.K.K.K.K.K.K.K.p . + % % % % . . . . . . . . K.K.K.K.K.K.K.K.'.J.'.'.'.'.|.+X}.A g.'.K.K.J.^ ",
"'.J.'.'.c.i } K.K.K.K.K.K.K.K.K.K.K.K.K.K.K.K.K.K.* % $.t.t.t.$.c l c . . . . . K.K.K.K.K.K.K.K.G.'.J.'.|.+X{.k g.'.K.K.K.K.K.J.",
"K.g.P J.K.K.c.i } K.K.K.K.K.K.K.K.K.K.K.K.K.K.0.  % ..f.s.].].W.W.T.-.d . . . . r j.K.K.A.I M.K.'.'. X+X'.A 0.'.K.K.K.K.'.J.K.K.",
"J.'.K.K.K.K.K.'.c.i } K.K.K.K.S.N.K.K.K.K.0.    * d l $ o.p.!.].).).a.$.X . . _     r j.K.K.K.K.|.@X|.V 0.'.'.G.K.K.K.K.J.'.J.'.",
"'.J.'.J.K.K.K.K.K.K.c.i | K.K.n.N.K.K.c.    2 r [ Q =.d ] 1 f.1 f d x @.X . . { K.J.    r x.|.+X'.A 0.'.'.'.'.'.'.J.'.J.'.J.'.J.",
"J.'.J.'.K.K.K.K.K.K.K.K.c.i g.K.K.c.    6 r ' J.K.Q 3.p.I.o.a.@.@ `.+.m % . 3 K.K.K.K.K.    A C 0.'.'.'.C.F.G.'.J.'.J.'.J.'.J.'.",
"'.J.'.J.K.K.K.K.K.K.K.K.K.K.c.i r   & r [ K.K.K.K.m.#.(.^.e.(.w.E.~./.8.n . G.K.K.K.K.K.K.J.    6 ' J.G.0.S.'.G.'.'.'.J.'.J.'.J.",
"J.'.J.'.K.K.K.K.K.K.K.K.K.K.K.'.x.i A K.K.K.G.' D.K.O.p.d.^.].t.).]._.e.m L K.K.K.K.K.K.K.K.K.K.    6 [ '.G.'.'.'.G.J.'.J.'.J.'.",
"'.J.'.'.G.G.'.'.'.K.K.K.K.K.K.K.K.K.q.z 0.'.'.A.L.L.6.e.7.O.f.m u.Y.a.;.M ! K.K.K.K.K.K.K.K.K.K.'.J.'   7 { '.'.'.J.J.'.J.'.J.'.",
"J.'.J.'.'.'.'.G.J.'.K.K.K.K.K.K.K.K.J.'.M.z 0.'.D.{ ] 8.R.>.&.a.r.p.,.n n H ~ K.K.K.K.K.K.K.K.K.'.J.J.'.'   6 { J.'.'.J.'.J.'.J.",
"'.J.'.J.'.G.'.G.J.J.J.'.K.K.K.K.K.K.K.K.'.'.g.z N - P.c 2.2.$.< f.p.,.n : 1 Y J.K.K.K.K.K.K.K.K.J.'.'.J.J.J.'   6 } J.'.J.'.J.'.",
"J.'.J.'.'.'.'.'.'.J.'.J.K.K.K.K.K.K.K.K.J.'.0.#.9.b 9 X #.r.d.e.p.8.n - 6.R 1.! K.K.K.K.K.K.K.K.'.J.'.'.'.J.'.'.'   e 0.'.J.'.J.",
"'.'.'.G.G.G.'.'.'.J.J.'.J.'.'.G.K.K.K.K.'.0.*.s.U.p.% ; 1 -.p.i.-.M c.v.*.g $.1.T K.'.J.K.K.K.K.J.'.J.'.J.'.'.G.K.J.'   7 0.'.J.",
"G.G.'.'.'.'.F.'.J.'.'.J.'.'.G.'.K.K.K.K.0.$.~.].!.U.. B.E c o.o.! K.] >.e.w X u.*.c.J.'.K.K.K.K.'.J.'.J.'.J.'.J.K.K.'.J.'   e 0.",
"M.'.'.'.'.'.'.'.'.J.'.J.J.'.G.'.K.K.K.K.N s.].]./.u.+ ; h +.= % k.m *.1.7.N $.b f...'.J.K.K.K.K.J.'.J.'.J.'.J.'.K.J._ 0.K.K.'   ",
"G j M.'.F.'.F.'.J.'.J.J.'.J.'.'.K.K.'.'.Y s.].^.U.@.: r.U C.8 y.R.=.o.u.$ %.r.$.,...J.'.K.K.K.K.'.J.'.J.'.J.'.J.K.'.G.K.K.{     ",
"' '.q.G V.'.'.'.'.D.'.'.'.'.G.G.K.K.'.K.m w.i.d.-.- r.d.].Y.4.o E 5.O.6.Z.!.u.T $...E K.K.K.K.K.K.K.K.K.K.K.K.K.K.K.K.0.    6 e ",
"'.'.'.'.l.k V.'.'.'.D.'.F.'.'.'.K.K.'.q.w.t.3.-.t.1 a.a.].].).Y.h 9 z.J Y.^.u.>.=...E K.'.K.K.K.K.K.K.K.K.K.K.K.K.0.    r e ( J.",
"D.H q.'.'.'.x.k C.'.'.'.'.'.'.'.K.K.'.q.w.~.r.w.p.1 e.a.!.].].].].t.K f u.u.-.&.-...E K.K.K.K.K.K.K.K.K.K.K.K.0.    * e ( K.K.K.",
"'.'.'.'.'.'.'.'.x.Z M.'.F.'.'.F.K.'.'.C.w.].r.a._.#...t.U.I.).].T.7.; ; *.-.b N -.m I J.K.K.K.D.l.K.K.K.K.c.    2 r ( K.K.K.K.K.",
"'.'.D.'.'.'.'.'.'.'.0.G A.'.'./ V.K.'.c.$.d.r.d.].<.X ..r.p.a.t.x # x U _ ! o x o.n Y V ^ J.K.N.V.K.K.x.    6 e ) J.K.K.K.K.K.K.",
"'.'.'.'.'.D.F.'.'.'.'.'.g.Z C.'.K.K..X'.;.a.X.d.a.#.q , o.@.g % F U.P.[.3.+ % x n n E '.A.V / K.K.c.    & e ( K.K.K.K.K.K.K.K.K.",
"'.'.'.'.'.'.'.'.'.'.'.'.'.'.x.G |.+Xq.0 m w.-.-.#.A.v v * O U %.<.T.!.Q.1.@.m d n n E K.K.K.A.V 6   * e ( K.K.K.K.K.K.K.K.K.K.K.",
"D.'.'.D.'.D.'.F.'.D.'.F.'.'.'.'.q.Z G #.d.w.r.t.&.'.c.n =.-.u.U./.T.~.s.+.=.b y T l y K.K.K.K.K.A.V i H.K.K.J._ M.K.K.K.K.K.K.K.",
"K.K.K.K.K.K.K.K.K.K.K.K.K.K.K.K.K.K.n.#.(.r.p.i.&.K.0 n n -.2.p.~.e.~.Y.8.m 8 q.{ + y J.'.J.J.'.J.'.V.k ( '.'.S.'.'.'.D.'.'.D.'.",
"K.K.K.K.K.K.K.K.K.K.K.K.K.K.K.K.K.K.K.O._.E.u.~.4.K.. # - d o.7.7.$.7.&.b - & q.{ + y '.J.'.'.J.'.J.'.'.C.k ( '.'.'.'.'.'.'.'.'.",
"K.K.K.K.K.K.K.K.K.K.K.K.K.K.K.K.K.K.K.- t.d.u.f | J.. O h k O @ + + + O 7 p . q { # q '.'.J.'.'.'.J.'.J.'.G.C.k / '.'.'.'.'.D.'.",
"K.K.K.K.K.K.K.K.K.K.K.K.K.K.K.K.K.K.K.. 1 #.T . c.& O 5 * 6 C z o L.j.7 O ; * 9 4.N q.G.J.'.J.'.J.'.J.'.'.'.'.'.V.V ) '.'.D.'.'.",
"K.K.K.K.K.K.K.K.K.K.K.K.K.K.K.K.K.K.K.. . K u . J.y X & X y P 7 . O O . z , 5 s s.].E '.'.G.G.'.'.J.G.'.'.G.'.F.'.'.M.j ( '.'.'.",
"K.K.K.K.K.K.K.K.K.K.K.K.K.K.K.K.K.K.K.. . K u p Z.. = $ Z z o . . . . O p * . . w.].E '.'.'.'.'.J.'.'.'.'.'.'.'.D.'.'.'.V.k 0.'.",
"} J.K.K.K.K.K.K.K.K.K.K.K.K.K.K.K.K.K.l.. H u _ A.. & ) & q H p 0 . . . q X y . m p.Q '.G.'.'.G.'.G.'.'.G.'.G.F.'.'.0.0.'.'.M.k ",
"{ V ^ J.K.K.K.K.K.K.K.K.K.K.K.K.K.K.K.c.+ L 5.O.C.. 5 j _ u ~ Z O . . 5 y Z u . M X.'.G.'.'.'.J.J.'.'.G.'.'.'.'.D.'.A.'.'.'..X+X",
"A.K.Z.V ^ J.K.K.K.K.K.K.K.K.K.K.K.K.K.c.-.a.).i.C.. u H _  .L . . . . $ Z j . . C.V.'.J.J.'.J.'.'.'.'.'.S.'.'.'.'.'.'.'..X+Xm.V ",
"K.K.J.K.A.V ^ J.K.K.K.K.K.K.K.K.K.K.K.c.;.).2.4.C.. & [ )  ., . . . . . u z . . '.J.J.'.'.J.'.J.'.D.'.D.'.'.'.'.'.'.oX+Xx.V C.'.",
"K.} [ K.K.K.Z.V ^ J.K.K.K.K.K.K.K.K.K.K.] <.:.K.XX. o Z h.Z * . . . . . > z y . x.'.'.J.J.'.J.'.D.'.'.'.'.'.'.'.|.+Xm.V m.'.'.'.",
"K.K.K.K.K.K.K.'.A.V ^ K.K.K.K.j.j.K.K.K.K.c.M M r . o j ' u . . . k.. . . z q . c.k x.'.'.J.'.F.S.'.'.'.S.'..X+Xg.V C.'.'.'.'.'.",
"K.K.K.K.K.K.K.K.K.K.A.A ^ J.K.A.J.K.K.XX+X{.B V x.& . 0 H > . * C c.. . = , = . K.'.n.V n.'.H.0.c.'.'.'.oX+Xx.V m.'.S.'.'.D.'.'.",
"K.K.K.K.K.K.K.K.K.K.K.K.A.V ) P.K.XX+X}.C C Z.K.O 3 j . q O * . q.m.. 3 X y z . 3 J.K.'.n.k n.'.'.'..XoXg.k C.'.'.'.'.'.'.'.D.'.",
"K.K.K.K.K.K.K.K.K.K.K.K.K.K.Z.V g. XA V C.K.K.K.O O * # . . X & K.m.. O & > $ O > J.'.J.'.'.c.V '.+Xx.k c.'.'.'.'.'.'.'.'.'.'.'.",
"K.K.K.K.K.K.K.K.K.K.K.K.K.K.K.K.C.V P K.K.K.M.L . 4 . . $ z & H.K.K.5 . . & . . 2 '.J.'.'.J.'.J.g.k W '.'.'.0./ '.D.S.'.'.D.'.'.",
"K.K.K.K.K.K.K.K.K.K.K.K.K.K.K.K.K.K.Z.C [ K.K.J.. S 3 . $ o , J.K.K.5 . . . . . > '.'.J.J.'.'.J.'.'.A.V 0.F.D.'.'.G.'.'.G.G.'.'.",
"K.K.K.K.K.K.K.K.K.K.K.K.K.K.K.K.K.K.K.K.Z.C [ M.O L q . . u & H.K.K.6 . . . q . > '.J.'.'.J.J.'.'.'.'.'.A.k 0.F.'.'.G.'.'.'.'.G.",
"K.K.K.K.K.K.K.K.K.K.K.K.K.K.K.K.K.K.K.K.K.K.Z.2 . L u . . z K K.K.K.7 . . . z . > J.'.J.J.'.'.J.'.F.'.'.'.'.A.z 0.'.'.'.'.G.'.G.",
"K.K.K.K.K.K.K.K.K.K.K.K.K.K.K.K.K.K.K.K.K.K.K.I O P y . . . P K.K.K.K.. . , j . > '.J.J.'.J.J.'.'.'.'.'.'.'.'.'.C.A 0.F.'.'.'.'.",
"K.K.K.K.K.K.K.K.K.K.K.K.K.K.K.K.K.K.K.K.K.K.K.I o W . . . . P K.K.K.K.. . . z . > J.'.K.'.J.'.J.'.F.'.'.F.'.'.F.'.'.F.J 0.'.'.'.",
"K.K.K.K.K.K.K.K.K.K.K.'.K.K.K.K.K.K.K.K.K.K.K.K $ y . . . . p K.K.K.K.. . X , X . l.K.K.J.'.J.'.'.'.'.F.'.'.'.'.'.'.'.'.V.A 0.G.",
"n.K.K.K.K.K.K.K.K.K.K.K.K.K.K.K.K.K.K.K.K.K.K.I X * . . . O C.G | K.6 + # o o q 4 { C.'.'.J.J.'.'.'.'.'.F.'.F.F.'.C.I g.'.'.S.0.",
"M.i l.K.K.K.K.K.K.K.K.K.K.K.K.K.K.K.K.K.K.K.H.= O & . 7 , 4 n. XB C & . o z u # . . # Z ' J.'.J.F.'.F.'.'.'.'.'.'.'.'.'.'.@X+Xg.",
"    r J m.'.K.K.K.K.K.K.K.K.K.K.K.K.K.K.K.K.H.O # O 7 o 5 5 r C V.K.J.. . . . . . . # x.C.j.J.'.'.'.'.G.H.'.'.'.'.F.'.@X+XV.r V ",
"r A A.K.K.m.M.K.K.K.K.K.K.K.K.K.K.K.K.K.K.K.e O # z q . 5 . ~ K.K.K.S.. . . . . . . . o H # '.J.G.G.'.'.'.'.H.'.'..X+XA.j V D.'.",
"S.K.K.S.Z.K.K.M.V.K.K.K.K.K.K.K.K.K.K.K.K.D P h . . , O . . P K.K.l.| t . 3 z . O O X # . S K.'.'.'.'.'.H.'.'.oX+XS.a V C.'.'.'.",
"K.K.K.l.V.K.K.K.K.m.V.K.K.K.K.M.J.K.K.K.7 7 L._ 5 . . . . . ~ K.K.K.K.J.D.H.K.D.A.W k g.D.K.K.q.0.G.G.'.'.XX+XH.j V A.'.'.H.'.'.",
"K.K.K.K.K.K.K.K.K.K.K.M.V.K.S.j.J.K.K.}.6 & L 7 . . . . . P K.K.K.K.K.K.K.K.K.K.'.G.G.W V A.'.F.S.'.'..X+X'.a V C.'.'.G.'.H.'.'.",
"K.K.K.K.K.K.K.K.K.K.K.K.K.V.Z.K.K.}.+X X+ . . . . . . & S K.K.K.K.K.K.K.K.K.K.K.'.H.'.'.'.^ V A.'. X+X'.k V A.'.'.G.'.'.H.'.'.H.",
"K.K.K.K.K.K.K.K.K.K.K.K.K.K.K.V.XX XA C { . . . . L | F.K.K.K.K.K.K.K.K.K.K.K.K.H.'.'.'.'.'.H.^ J '.k V C.'.'.'.'.'.G.'.'.'.'.G.",
"K.K.K.K.K.K.K.K.K.K.K.K.K.K.K.K.K.x.K G.K.K.j.^ K.K.K.K.K.K.K.K.K.K.K.K.K.K.K.K.'.'.H.H.'.H.H.'.'.^ V S.'.'.V.J C.G.'.'.G.G.'.'."
};
